<svg width="706" height="706" viewBox="0 0 706 706" fill="none" xmlns="http://www.w3.org/2000/svg">
<g filter="url(#filter0_d_0_748)">
<rect x="53" y="53" width="600" height="600" rx="81.3841" fill="white"/>
</g>
<path d="M353 362.25C374.797 362.25 390.031 351.996 398.938 342.387C404.152 336.703 413.059 336.293 418.801 341.566C424.484 346.84 424.836 355.746 419.562 361.43C406.73 375.434 384.465 390.375 353 390.375C321.535 390.375 299.27 375.434 286.438 361.43C281.164 355.746 280.988 346.84 287.199 341.566C292.941 336.293 301.848 336.703 307.062 342.387C315.969 351.996 331.203 362.25 353 362.25ZM368.176 291.117C363.488 286.664 363.254 279.281 367.648 274.535C376.203 265.453 388.332 261.469 399.641 261.469C410.48 261.469 423.137 265.453 431.633 274.535C436.086 279.281 435.852 286.664 431.105 291.117C426.359 295.512 418.977 295.277 414.523 290.59C411.359 287.133 405.91 284.906 399.641 284.906C392.902 284.906 387.98 287.133 384.758 290.59C380.363 295.277 372.922 295.512 368.176 291.117ZM503 306C503 388.852 435.852 456 353 456C270.148 456 203 388.852 203 306C203 223.148 270.148 156 353 156C435.852 156 503 223.148 503 306ZM353 184.125C285.676 184.125 231.125 238.676 231.125 306C231.125 373.324 285.676 427.875 353 427.875C420.324 427.875 474.875 373.324 474.875 306C474.875 238.676 420.324 184.125 353 184.125Z" fill="#FF2700"/>
<path d="M275.07 274.535C270.676 279.281 270.91 286.664 275.598 291.117C280.344 295.512 287.785 295.277 292.18 290.59C295.402 287.133 300.324 284.906 307.062 284.906C313.332 284.906 318.781 287.133 321.945 290.59C326.398 295.277 333.781 295.512 338.527 291.117C343.273 286.664 343.508 279.281 339.055 274.535C330.559 265.453 317.902 261.469 307.062 261.469C295.754 261.469 283.625 265.453 275.07 274.535Z" fill="#FF2700"/>
<path d="M231.42 509.441L234.54 507.161C235.26 506.621 235.38 505.901 234.84 505.181C231.42 500.981 226.26 498.461 219.9 498.461C208.32 498.461 200.28 506.861 200.28 518.441C200.28 530.021 208.32 538.421 219.9 538.421C226.26 538.421 231.42 535.901 234.84 531.701C235.44 530.981 235.32 530.261 234.54 529.661L231.42 527.261C230.64 526.661 230.04 526.841 229.38 527.501C227.22 529.841 223.92 531.761 219.9 531.761C212.16 531.761 206.94 526.121 206.94 518.441C206.94 510.761 212.16 505.121 219.9 505.121C223.92 505.121 227.28 506.861 229.38 509.201C230.04 509.861 230.7 509.981 231.42 509.441ZM258.806 538.421C270.386 538.421 278.306 530.021 278.306 518.441C278.306 506.861 270.386 498.461 258.806 498.461C247.226 498.461 239.186 506.861 239.186 518.441C239.186 530.021 247.226 538.421 258.806 538.421ZM258.806 531.761C251.066 531.761 245.846 526.121 245.846 518.441C245.846 510.761 251.066 505.121 258.806 505.121C266.546 505.121 271.586 510.761 271.586 518.441C271.586 526.121 266.546 531.761 258.806 531.761ZM308.738 500.381V526.361L291.398 499.901C290.978 499.241 290.438 498.941 289.658 498.941H285.758C284.858 498.941 284.318 499.481 284.318 500.381V536.501C284.318 537.401 284.858 537.941 285.758 537.941H289.538C290.438 537.941 290.978 537.401 290.978 536.501V510.521L308.318 536.981C308.738 537.641 309.278 537.941 310.058 537.941H313.958C314.858 537.941 315.398 537.401 315.398 536.501V500.381C315.398 499.481 314.858 498.941 313.958 498.941H310.178C309.278 498.941 308.738 499.481 308.738 500.381ZM348.505 503.801V500.381C348.505 499.481 347.965 498.941 347.065 498.941H323.785C322.885 498.941 322.345 499.481 322.345 500.381V536.501C322.345 537.401 322.885 537.941 323.785 537.941H327.565C328.465 537.941 329.005 537.401 329.005 536.501V522.521H345.925C346.825 522.521 347.365 521.981 347.365 521.081V517.661C347.365 516.761 346.825 516.221 345.925 516.221H329.005V505.241H347.065C347.965 505.241 348.505 504.701 348.505 503.801ZM372.244 538.421C383.824 538.421 391.744 530.021 391.744 518.441C391.744 506.861 383.824 498.461 372.244 498.461C360.664 498.461 352.624 506.861 352.624 518.441C352.624 530.021 360.664 538.421 372.244 538.421ZM372.244 531.761C364.504 531.761 359.284 526.121 359.284 518.441C359.284 510.761 364.504 505.121 372.244 505.121C379.984 505.121 385.024 510.761 385.024 518.441C385.024 526.121 379.984 531.761 372.244 531.761ZM427.455 536.201L419.235 523.541C423.915 522.281 427.815 518.021 427.815 511.481C427.815 503.441 422.055 498.941 416.175 498.941H399.195C398.295 498.941 397.755 499.481 397.755 500.381V536.501C397.755 537.401 398.295 537.941 399.195 537.941H402.975C403.875 537.941 404.415 537.401 404.415 536.501V523.961H411.795L420.255 536.981C420.675 537.641 421.215 537.941 421.995 537.941H426.495C427.635 537.941 428.055 537.161 427.455 536.201ZM404.415 505.421H415.155C418.515 505.421 421.155 507.881 421.155 511.481C421.155 515.021 418.515 517.481 415.155 517.481H404.415V505.421ZM461.636 498.941H433.796C432.896 498.941 432.356 499.481 432.356 500.381V503.621C432.356 504.521 432.896 505.061 433.796 505.061H444.356V536.501C444.356 537.401 444.896 537.941 445.796 537.941H449.636C450.536 537.941 451.076 537.401 451.076 536.501V505.061H461.636C462.536 505.061 463.076 504.521 463.076 503.621V500.381C463.076 499.481 462.536 498.941 461.636 498.941ZM485.388 538.421C496.968 538.421 504.888 530.021 504.888 518.441C504.888 506.861 496.968 498.461 485.388 498.461C473.808 498.461 465.768 506.861 465.768 518.441C465.768 530.021 473.808 538.421 485.388 538.421ZM485.388 531.761C477.648 531.761 472.428 526.121 472.428 518.441C472.428 510.761 477.648 505.121 485.388 505.121C493.128 505.121 498.168 510.761 498.168 518.441C498.168 526.121 493.128 531.761 485.388 531.761Z" fill="#FF2700"/>
<defs>
<filter id="filter0_d_0_748" x="0" y="0" width="706" height="706" filterUnits="userSpaceOnUse" color-interpolation-filters="sRGB">
<feFlood flood-opacity="0" result="BackgroundImageFix"/>
<feColorMatrix in="SourceAlpha" type="matrix" values="0 0 0 0 0 0 0 0 0 0 0 0 0 0 0 0 0 0 127 0" result="hardAlpha"/>
<feMorphology radius="3" operator="dilate" in="SourceAlpha" result="effect1_dropShadow_0_748"/>
<feOffset/>
<feGaussianBlur stdDeviation="25"/>
<feComposite in2="hardAlpha" operator="out"/>
<feColorMatrix type="matrix" values="0 0 0 0 1 0 0 0 0 0.152941 0 0 0 0 0 0 0 0 0.2 0"/>
<feBlend mode="normal" in2="BackgroundImageFix" result="effect1_dropShadow_0_748"/>
<feBlend mode="normal" in="SourceGraphic" in2="effect1_dropShadow_0_748" result="shape"/>
</filter>
</defs>
</svg>
