<svg width="279" height="66" viewBox="0 0 279 66" fill="none" xmlns="http://www.w3.org/2000/svg">
<rect y="0.75" width="279" height="64.5" rx="26.3636" fill="#FF2700"/>
<path d="M35.5951 41.3259H45.9806C46.378 41.3259 46.6165 41.0875 46.6165 40.6901V38.8355C46.6165 38.4381 46.378 38.1997 45.9806 38.1997H38.3769V34.2786H45.4242C45.8216 34.2786 46.0601 34.0402 46.0601 33.6428V31.7882C46.0601 31.3908 45.8216 31.1524 45.4242 31.1524H38.3769V27.2313H45.9806C46.378 27.2313 46.6165 26.9929 46.6165 26.5955V24.7409C46.6165 24.3435 46.378 24.1051 45.9806 24.1051H35.5951C35.1977 24.1051 34.9593 24.3435 34.9593 24.7409V40.6901C34.9593 41.0875 35.1977 41.3259 35.5951 41.3259ZM50.0321 41.3259H52.178C52.5754 41.3259 52.8139 41.0875 52.8139 40.6901V30.9934L56.6025 38.862C56.7614 39.2064 56.9999 39.3389 57.3443 39.3389H58.669C59.0134 39.3389 59.2518 39.2064 59.4108 38.862L63.1729 31.0199V40.6901C63.1729 41.0875 63.4113 41.3259 63.8088 41.3259H65.9812C66.3786 41.3259 66.6171 41.0875 66.6171 40.6901V24.7409C66.6171 24.3435 66.3786 24.1051 65.9812 24.1051H63.6498C63.3054 24.1051 63.0669 24.2375 62.908 24.5555L58.0066 34.3316L53.1053 24.5555C52.9464 24.2375 52.7079 24.1051 52.3635 24.1051H50.0321C49.6347 24.1051 49.3962 24.3435 49.3962 24.7409V40.6901C49.3962 41.0875 49.6347 41.3259 50.0321 41.3259ZM83.254 41.5379C86.0889 41.5379 88.3938 40.3987 89.9039 38.5176C90.1159 38.2262 90.0364 37.9347 89.7185 37.6698L87.9699 36.3186C87.652 36.0537 87.3341 36.1067 87.0691 36.4246C86.1948 37.3254 84.8702 38.1202 83.254 38.1202C80.1013 38.1202 77.9818 35.8417 77.9818 32.7155C77.9818 29.5892 80.1013 27.3108 83.254 27.3108C84.8702 27.3108 86.2213 27.9996 87.0691 28.9269C87.3606 29.2183 87.652 29.2713 87.9699 29.0329L89.7185 27.7347C90.0629 27.4698 90.0894 27.1783 89.851 26.8604C88.3408 25.0058 86.0624 23.8931 83.254 23.8931C78.1408 23.8931 74.5641 27.6022 74.5641 32.7155C74.5641 37.8288 78.1408 41.5379 83.254 41.5379ZM100.252 41.5379C105.366 41.5379 108.889 37.8288 108.889 32.7155C108.889 27.6022 105.366 23.8931 100.252 23.8931C95.1391 23.8931 91.5625 27.6022 91.5625 32.7155C91.5625 37.8288 95.1391 41.5379 100.252 41.5379ZM100.252 38.1202C97.0997 38.1202 94.9802 35.8417 94.9802 32.7155C94.9802 29.5892 97.0997 27.3108 100.252 27.3108C103.405 27.3108 105.445 29.5892 105.445 32.7155C105.445 35.8417 103.405 38.1202 100.252 38.1202ZM112.049 41.3259H114.221C114.619 41.3259 114.857 41.0875 114.857 40.6901V30.1191L121.825 40.902C122.011 41.1935 122.249 41.3259 122.593 41.3259H124.766C125.163 41.3259 125.402 41.0875 125.402 40.6901V24.7409C125.402 24.3435 125.163 24.1051 124.766 24.1051H122.62C122.222 24.1051 121.984 24.3435 121.984 24.7409V35.3384L115.016 24.529C114.831 24.2375 114.592 24.1051 114.248 24.1051H112.049C111.651 24.1051 111.413 24.3435 111.413 24.7409V40.6901C111.413 41.0875 111.651 41.3259 112.049 41.3259ZM135.196 41.6439C139.329 41.6439 142.058 39.7893 142.058 36.2127C142.058 32.6095 137.581 31.5233 136.283 31.0729C134.931 30.6225 132.388 30.1986 132.388 28.7679C132.388 27.8142 133.209 27.2048 134.772 27.2048C136.574 27.2048 138.111 27.9996 138.826 28.7679C139.117 29.0594 139.382 29.1124 139.7 28.9004L141.396 27.8142C141.714 27.6022 141.846 27.3108 141.661 26.9664C140.707 25.2973 138.19 23.7871 135.196 23.7871C131.699 23.7871 128.467 25.2708 128.467 28.9534C128.467 32.7155 132.865 33.5633 134.216 34.0137C135.541 34.4641 138.243 34.941 138.243 36.3716C138.243 37.4579 137.66 38.1997 135.567 38.1997C133.501 38.1997 131.699 36.981 130.878 36.0007C130.613 35.6828 130.321 35.6298 130.004 35.8682L128.255 37.1134C127.937 37.3254 127.831 37.6433 128.016 37.9877C129.076 39.8688 131.567 41.6439 135.196 41.6439ZM149.595 41.3259H151.768C152.165 41.3259 152.404 41.0875 152.404 40.6901V27.2313H156.908C157.305 27.2313 157.543 26.9929 157.543 26.5955V24.7409C157.543 24.3435 157.305 24.1051 156.908 24.1051H144.429C144.032 24.1051 143.793 24.3435 143.793 24.7409V26.5955C143.793 26.9929 144.032 27.2313 144.429 27.2313H148.96V40.6901C148.96 41.0875 149.198 41.3259 149.595 41.3259ZM160.56 41.3259H162.706C163.104 41.3259 163.342 41.0875 163.342 40.6901V35.4443H166.124L169.568 40.902C169.753 41.1935 169.992 41.3259 170.336 41.3259H172.88C173.383 41.3259 173.569 40.9815 173.304 40.5576L169.886 35.1529C171.82 34.4641 173.436 32.636 173.436 29.7747C173.436 26.0656 170.76 24.1051 168.19 24.1051H160.56C160.163 24.1051 159.924 24.3435 159.924 24.7409V40.6901C159.924 41.0875 160.163 41.3259 160.56 41.3259ZM163.342 32.1061V27.4168H167.634C168.906 27.4168 169.992 28.3176 169.992 29.7747C169.992 31.2054 168.906 32.1061 167.634 32.1061H163.342ZM182.849 41.5379C187.141 41.5379 189.525 38.6501 189.525 35.2324V24.7409C189.525 24.3435 189.287 24.1051 188.889 24.1051H186.743C186.346 24.1051 186.108 24.3435 186.108 24.7409V34.8615C186.108 37.2459 184.597 38.1997 182.849 38.1997C181.1 38.1997 179.59 37.2459 179.59 34.8615V24.7409C179.59 24.3435 179.352 24.1051 178.954 24.1051H176.808C176.411 24.1051 176.172 24.3435 176.172 24.7409V35.2324C176.172 38.6501 178.557 41.5379 182.849 41.5379ZM207.336 37.6698L205.587 36.3186C205.269 36.0537 204.951 36.1067 204.686 36.4246C203.812 37.3254 202.487 38.1202 200.871 38.1202C197.719 38.1202 195.599 35.8417 195.599 32.7155C195.599 29.5892 197.719 27.3108 200.871 27.3108C202.487 27.3108 203.839 27.9996 204.686 28.9269C204.978 29.2183 205.269 29.2713 205.587 29.0329L207.336 27.7347C207.68 27.4698 207.707 27.1783 207.468 26.8604C205.958 25.0058 203.68 23.8931 200.871 23.8931C195.758 23.8931 192.181 27.6022 192.181 32.7155C192.181 37.4579 195.255 40.9815 199.785 41.4849C199.732 41.5114 199.706 41.5644 199.679 41.6174L199.335 42.1737C199.176 42.4387 199.149 42.6771 199.149 42.9685V43.207C199.149 43.6044 199.388 43.7898 199.812 43.7368C199.997 43.7104 200.156 43.7104 200.235 43.7104C200.977 43.7104 201.375 43.8693 201.375 44.2137C201.375 44.6111 200.898 44.7436 200.368 44.7436C200.103 44.7436 199.706 44.7171 199.361 44.6376C198.911 44.5582 198.672 44.6906 198.672 45.141V45.5119C198.672 45.8828 198.831 46.1478 199.202 46.2273C199.6 46.3067 200.077 46.3332 200.368 46.3332C201.905 46.3332 203.044 45.7504 203.044 44.2137C203.044 43.1805 202.355 42.5711 201.163 42.3592L201.507 41.7763C201.56 41.6703 201.587 41.5909 201.56 41.5114C204.077 41.3524 206.144 40.2397 207.521 38.5176C207.733 38.2262 207.654 37.9347 207.336 37.6698ZM218.737 22.9658C220.459 22.9658 221.334 21.9061 221.519 20.4489C221.572 20.0515 221.334 19.8396 220.91 19.8396H220.247C219.85 19.8396 219.664 20.0515 219.585 20.4489C219.479 20.7934 219.241 21.0583 218.737 21.0583C218.26 21.0583 217.916 20.7404 217.624 20.4224C217.227 19.9721 216.591 19.4952 215.611 19.4952C214.074 19.4952 213.173 20.5549 212.962 21.9856C212.909 22.4095 213.147 22.6479 213.571 22.6479H214.26C214.631 22.6479 214.816 22.436 214.922 22.0651C215.028 21.7206 215.266 21.4027 215.69 21.4027C216.114 21.4027 216.379 21.6676 216.724 22.0386C217.095 22.4625 217.677 22.9658 218.737 22.9658ZM209.729 41.3259H212.034C212.379 41.3259 212.617 41.1405 212.75 40.8225L213.677 38.4911H220.751L221.678 40.8225C221.81 41.1405 222.049 41.3259 222.393 41.3259H224.698C225.175 41.3259 225.387 41.008 225.202 40.5841L218.737 24.6084C218.605 24.2905 218.34 24.1051 217.995 24.1051H216.459C216.114 24.1051 215.849 24.2905 215.717 24.6084L209.226 40.5841C209.04 41.008 209.252 41.3259 209.729 41.3259ZM214.922 35.3649L217.227 29.5098L219.532 35.3649H214.922ZM234.765 41.5379C239.878 41.5379 243.401 37.8288 243.401 32.7155C243.401 27.6022 239.878 23.8931 234.765 23.8931C229.651 23.8931 226.075 27.6022 226.075 32.7155C226.075 37.8288 229.651 41.5379 234.765 41.5379ZM234.765 38.1202C231.612 38.1202 229.492 35.8417 229.492 32.7155C229.492 29.5892 231.612 27.3108 234.765 27.3108C237.917 27.3108 239.957 29.5892 239.957 32.7155C239.957 35.8417 237.917 38.1202 234.765 38.1202Z" fill="white"/>
</svg>
