<svg width="80" height="81" viewBox="0 0 80 81" fill="none" xmlns="http://www.w3.org/2000/svg">
<g clip-path="url(#clip0_0_10)">
<path d="M14.6398 0.97998C6.55193 0.97998 0.0395508 7.49236 0.0395508 15.5803V66.3402C0.0395508 74.4281 6.55193 80.9405 14.6398 80.9405H42.1513V49.6809H33.8854V38.4265H42.1513V28.8112C42.1513 21.257 47.0352 14.3209 58.2858 14.3209C62.8409 14.3209 66.2094 14.7582 66.2094 14.7582L65.9445 25.268C65.9445 25.268 62.5091 25.2356 58.7605 25.2356C54.7034 25.2356 54.0528 27.1049 54.0528 30.2082V38.4266H66.2668L65.7346 49.681H54.0528V80.9406H65.3997C73.4876 80.9406 80 74.4282 80 66.3403V15.5804C80 7.49244 73.4876 0.98006 65.3997 0.98006H14.6398L14.6398 0.97998Z" fill="#FF2700"/>
</g>
<defs>
<clipPath id="clip0_0_10">
<rect width="79.9604" height="79.9604" fill="white" transform="translate(0.0395508 0.980469)"/>
</clipPath>
</defs>
</svg>
