<svg width="155" height="173" viewBox="0 0 155 173" fill="none" xmlns="http://www.w3.org/2000/svg">
<path d="M11.1893 1.26489H100.165C102.752 1.55754 104.805 2.45988 106.324 3.97191C114.494 12.1085 122.566 20.1775 130.541 28.1788C132.062 29.7064 133.077 30.9579 133.587 31.9334C134.379 33.4476 134.779 35.0949 134.788 36.8752C134.808 40.6154 134.811 44.5107 134.798 48.5613C134.788 51.9667 129.809 51.9501 129.813 48.5879C129.815 43.9121 129.812 39.8183 129.803 36.3065C129.803 36.2113 129.765 36.1199 129.698 36.0526C129.63 35.9852 129.539 35.9474 129.444 35.9474C122.161 35.9607 115.313 35.9596 108.901 35.944C103.867 35.9341 100.102 31.95 100.102 26.955C100.104 20.0999 100.104 13.3157 100.102 6.60245C100.102 6.37187 99.9867 6.25659 99.7561 6.25659C71.5153 6.25659 42.3621 6.25326 12.2967 6.24661C9.97209 6.24329 7.97675 7.42054 7.06554 9.56886C6.7618 10.2805 6.61104 11.4135 6.61326 12.9676C6.63986 62.6451 6.63875 111.661 6.60993 160.015C6.60772 161.363 6.73409 162.371 6.98905 163.041C7.88363 165.392 9.97875 166.56 12.5095 166.56C50.8712 166.542 88.3272 166.535 124.878 166.54C125.317 166.54 125.857 166.395 126.5 166.107C128.778 165.086 129.969 162.948 129.813 160.467C129.777 159.911 129.798 159.381 129.876 158.877C130.228 156.603 133.411 156.15 134.469 158.149C134.697 158.579 134.814 159.152 134.821 159.868C134.834 161.489 134.777 162.553 134.648 163.061C133.389 168.023 130.221 170.847 125.144 171.535H11.2258C5.67877 170.889 1.64817 166.579 1.64817 160.949C1.64373 112.07 1.64484 62.3569 1.65149 11.8103C1.65149 10.4967 1.86433 9.10661 2.37647 7.8828C3.96831 4.07168 6.90591 1.86571 11.1893 1.26489ZM105.087 27.0481C105.087 29.3627 106.816 30.9789 109.118 30.9756C114.545 30.9668 120.196 30.9645 126.071 30.969C126.211 30.969 126.232 30.9202 126.135 30.8226L105.253 9.938C105.239 9.92505 105.222 9.91628 105.203 9.91275C105.184 9.90922 105.164 9.91108 105.147 9.91811C105.129 9.92515 105.114 9.93705 105.104 9.95238C105.093 9.96771 105.087 9.98582 105.087 10.0045C105.085 16.0039 105.085 21.6851 105.087 27.0481Z" fill="white" stroke="white" stroke-width="2"/>
<path d="M34.8772 63.8692V46.8322C34.877 46.7653 34.857 46.6998 34.8198 46.6442C34.7825 46.5886 34.7296 46.5452 34.6677 46.5196C32.5792 45.6395 30.7457 44.6085 29.1672 43.4268C25.9014 40.9792 24.8805 36.6427 25.9247 32.8482C27.1574 28.3564 30.0762 25.5796 34.681 24.5176C34.8029 24.4888 34.8661 24.4112 34.8705 24.2848C34.9138 23.0676 34.6444 21.3117 35.1366 20.2376C35.8083 18.7677 37.654 18.3453 38.9377 19.3563C39.6494 19.915 39.8955 20.7464 39.8755 21.6243C39.8556 22.5311 39.8556 23.3836 39.8755 24.1817C39.8752 24.2168 39.8878 24.2509 39.911 24.2777C39.9342 24.3046 39.9665 24.3225 40.0019 24.328C42.4096 24.6628 44.6344 25.5607 46.6763 27.0217C49.8689 29.2998 46.683 33.4035 43.8762 31.1787C42.7278 30.2697 41.4441 29.6722 40.0252 29.3862C40.006 29.3823 39.9861 29.3828 39.9671 29.3877C39.948 29.3925 39.9302 29.4016 39.915 29.4144C39.8997 29.4271 39.8874 29.4431 39.8788 29.4612C39.8703 29.4793 39.8658 29.4992 39.8656 29.5193L39.8622 43.1674C39.8624 43.2098 39.876 43.2509 39.9011 43.285C39.9262 43.3191 39.9615 43.3443 40.0019 43.357C43.2177 44.4145 46.4934 45.6649 48.5653 48.5382C50.8089 51.651 51.4386 55.073 50.4542 58.8043C49.0486 64.1363 45.5867 67.5007 40.0684 68.8974C39.9376 68.9285 39.8711 69.0116 39.8689 69.1469C39.8423 70.3674 40.0684 72.0967 39.7026 73.2772C39.2902 74.6008 37.7438 75.2427 36.5001 74.7571C35.4315 74.3403 34.8916 73.5134 34.8805 72.2762C34.8716 71.2697 34.8716 70.2742 34.8805 69.2899C34.881 69.2564 34.8747 69.2232 34.8622 69.1921C34.8497 69.1611 34.8312 69.1328 34.8077 69.109C34.7842 69.0852 34.7561 69.0663 34.7253 69.0533C34.6944 69.0404 34.6612 69.0338 34.6278 69.0338C31.75 69.0382 28.7382 68.0106 25.5922 65.951C22.679 64.0454 25.4625 59.8352 28.4056 61.8173C30.3278 63.1143 32.2633 63.929 34.6477 64.0853C34.8007 64.0942 34.8772 64.0221 34.8772 63.8692ZM34.6012 29.6889C32.6945 30.4582 31.4363 31.8372 30.8266 33.8259C30.2513 35.7048 30.4176 38.1525 32.087 39.3829C32.9295 40.0037 33.8241 40.5602 34.7708 41.0524C34.7815 41.0582 34.7937 41.0611 34.8059 41.0608C34.8181 41.0605 34.8301 41.0569 34.8405 41.0505C34.851 41.0441 34.8596 41.0351 34.8654 41.0243C34.8713 41.0135 34.8742 41.0014 34.8739 40.9892L34.8772 29.8751C34.8772 29.6778 34.7852 29.6157 34.6012 29.6889ZM40.0052 63.7362C43.7232 62.4525 46.2407 58.7943 45.835 54.8502C45.4891 51.4614 43.241 49.7255 40.0717 48.6779C39.9343 48.6314 39.8656 48.6812 39.8656 48.8276L39.8622 63.6364C39.8623 63.6535 39.8664 63.6703 39.8743 63.6855C39.8823 63.7007 39.8937 63.7137 39.9078 63.7235C39.9218 63.7333 39.938 63.7395 39.9549 63.7417C39.9719 63.7439 39.9892 63.742 40.0052 63.7362Z" fill="white" stroke="white" stroke-width="2"/>
<path d="M148.25 66.8853C148.25 64.87 146.926 62.8646 144.791 62.8646C122.193 62.8624 99.7917 62.8602 77.5879 62.858C75.25 62.8547 73.7601 64.4443 73.7435 66.8653C73.7302 69.262 73.738 71.7462 73.7668 74.3179C73.7834 75.8178 73.2447 77.0782 71.6085 77.3575C70.0754 77.6202 68.7518 76.3765 68.7585 74.8434C68.7673 72.4113 68.7607 69.9891 68.7385 67.577C68.723 65.7834 68.907 64.4166 69.2906 63.4766C70.6674 60.1144 73.7169 57.873 77.3717 57.873C99.3316 57.873 121.733 57.8718 144.575 57.8696C149.59 57.8696 153.232 61.8969 153.232 66.8088C153.238 90.7574 153.244 115.394 153.248 140.72C153.25 142.035 153.123 143.134 152.866 144.019C151.792 147.727 148.313 150.198 144.419 150.201C121.528 150.203 99.2263 150.202 77.5147 150.198C73.6803 150.198 70.4312 147.843 69.1841 144.235C68.8605 143.304 68.7053 141.347 68.7186 138.365C68.7851 121.576 68.7851 104.665 68.7186 87.6336C68.7163 86.7179 68.8061 86.0317 68.9879 85.575C69.9823 83.0875 73.7402 83.8823 73.7402 86.6592C73.7491 104.085 73.7446 122.153 73.7269 140.863C73.7269 143.576 75.0737 145.219 77.8872 145.216C99.213 145.189 121.078 145.202 143.481 145.253C144.66 145.257 145.552 145.115 146.155 144.827C147.588 144.145 148.256 142.762 148.256 141.222C148.245 115.846 148.243 91.0667 148.25 66.8853Z" fill="white" stroke="white" stroke-width="2"/>
<path d="M86.211 69.9417H135.779C136.967 69.9417 138.106 70.4136 138.946 71.2537C139.786 72.0938 140.258 73.2332 140.258 74.4212L140.255 87.0684C140.255 88.2564 139.783 89.3958 138.943 90.2359C138.103 91.076 136.963 91.5479 135.775 91.5479H86.2143C85.0263 91.5479 83.8869 91.076 83.0468 90.2359C82.2067 89.3958 81.7348 88.2564 81.7348 87.0684L81.7314 74.4212C81.7314 73.8329 81.8473 73.2504 82.0724 72.707C82.2976 72.1635 82.6275 71.6697 83.0435 71.2537C83.4594 70.8377 83.9533 70.5078 84.4967 70.2826C85.0402 70.0575 85.6227 69.9417 86.211 69.9417ZM135.267 75.0564C135.267 75.0238 135.254 74.9925 135.231 74.9694C135.208 74.9463 135.176 74.9333 135.144 74.9333H86.8429C86.8102 74.9333 86.7789 74.9463 86.7559 74.9694C86.7328 74.9925 86.7198 75.0238 86.7198 75.0564V86.4365C86.7198 86.4692 86.7328 86.5005 86.7559 86.5235C86.7789 86.5466 86.8102 86.5596 86.8429 86.5596H135.144C135.176 86.5596 135.208 86.5466 135.231 86.5235C135.254 86.5005 135.267 86.4692 135.267 86.4365V75.0564Z" fill="white" stroke="white" stroke-width="2"/>
<path d="M56.2707 86.5562H22.7023C21.3469 86.5562 20.248 87.655 20.248 89.0104V89.0902C20.248 90.4457 21.3469 91.5445 22.7023 91.5445H56.2707C57.6262 91.5445 58.725 90.4457 58.725 89.0902V89.0104C58.725 87.655 57.6262 86.5562 56.2707 86.5562Z" fill="white" stroke="white" stroke-width="2"/>
<path d="M89.6131 100.224H84.1259C82.8237 100.224 81.7681 101.28 81.7681 102.582V102.822C81.7681 104.124 82.8237 105.179 84.1259 105.179H89.6131C90.9153 105.179 91.9709 104.124 91.9709 102.822V102.582C91.9709 101.28 90.9153 100.224 89.6131 100.224Z" fill="white" stroke="white" stroke-width="2"/>
<path d="M105.699 100.224H100.205C98.9028 100.224 97.8472 101.28 97.8472 102.582V102.822C97.8472 104.124 98.9028 105.179 100.205 105.179H105.699C107.001 105.179 108.057 104.124 108.057 102.822V102.582C108.057 101.28 107.001 100.224 105.699 100.224Z" fill="white" stroke="white" stroke-width="2"/>
<path d="M121.774 100.219L116.287 100.229C114.984 100.231 113.931 101.289 113.933 102.591L113.933 102.83C113.936 104.133 114.993 105.186 116.295 105.184L121.782 105.175C123.085 105.172 124.138 104.115 124.136 102.813L124.136 102.573C124.133 101.271 123.076 100.217 121.774 100.219Z" fill="white" stroke="white" stroke-width="2"/>
<path d="M137.858 100.229L132.371 100.219C131.068 100.217 130.011 101.271 130.009 102.573L130.008 102.813C130.006 104.115 131.06 105.172 132.362 105.175L137.849 105.184C139.151 105.186 140.209 104.133 140.211 102.83L140.211 102.591C140.214 101.289 139.16 100.231 137.858 100.229Z" fill="white" stroke="white" stroke-width="2"/>
<path d="M56.263 108.273L22.7013 108.331C21.3459 108.334 20.249 109.435 20.2514 110.79L20.2515 110.87C20.2539 112.225 21.3546 113.322 22.7101 113.32L56.2718 113.261C57.6272 113.259 58.7241 112.158 58.7217 110.803L58.7216 110.723C58.7192 109.367 57.6185 108.27 56.263 108.273Z" fill="white" stroke="white" stroke-width="2"/>
<path d="M89.6131 113.194H84.1259C82.8237 113.194 81.7681 114.25 81.7681 115.552V115.791C81.7681 117.094 82.8237 118.149 84.1259 118.149H89.6131C90.9153 118.149 91.9709 117.094 91.9709 115.791V115.552C91.9709 114.25 90.9153 113.194 89.6131 113.194Z" fill="white" stroke="white" stroke-width="2"/>
<path d="M105.699 113.194H100.205C98.9028 113.194 97.8472 114.25 97.8472 115.552V115.791C97.8472 117.094 98.9028 118.149 100.205 118.149H105.699C107.001 118.149 108.057 117.094 108.057 115.791V115.552C108.057 114.25 107.001 113.194 105.699 113.194Z" fill="white" stroke="white" stroke-width="2"/>
<path d="M121.774 113.189L116.287 113.199C114.984 113.201 113.931 114.259 113.933 115.561L113.933 115.8C113.936 117.102 114.993 118.156 116.295 118.154L121.782 118.144C123.085 118.142 124.138 117.085 124.136 115.782L124.136 115.543C124.133 114.241 123.076 113.187 121.774 113.189Z" fill="white" stroke="white" stroke-width="2"/>
<path d="M137.858 113.199L132.371 113.189C131.068 113.187 130.011 114.241 130.009 115.543L130.008 115.782C130.006 117.085 131.06 118.142 132.362 118.144L137.849 118.154C139.151 118.156 140.209 117.102 140.211 115.8L140.211 115.561C140.214 114.259 139.16 113.201 137.858 113.199Z" fill="white" stroke="white" stroke-width="2"/>
<path d="M89.6131 126.164H84.1259C82.8237 126.164 81.7681 127.219 81.7681 128.522V128.761C81.7681 130.063 82.8237 131.119 84.1259 131.119H89.6131C90.9153 131.119 91.9709 130.063 91.9709 128.761V128.522C91.9709 127.219 90.9153 126.164 89.6131 126.164Z" fill="white" stroke="white" stroke-width="2"/>
<path d="M105.699 126.164H100.205C98.9028 126.164 97.8472 127.219 97.8472 128.522V128.761C97.8472 130.063 98.9028 131.119 100.205 131.119H105.699C107.001 131.119 108.057 130.063 108.057 128.761V128.522C108.057 127.219 107.001 126.164 105.699 126.164Z" fill="white" stroke="white" stroke-width="2"/>
<path d="M121.774 126.159L116.287 126.168C114.984 126.171 113.931 127.228 113.933 128.53L113.933 128.77C113.936 130.072 114.993 131.126 116.295 131.124L121.782 131.114C123.085 131.112 124.138 130.054 124.136 128.752L124.136 128.513C124.133 127.21 123.076 126.157 121.774 126.159Z" fill="white" stroke="white" stroke-width="2"/>
<path d="M137.858 126.168L132.371 126.159C131.068 126.157 130.011 127.21 130.009 128.513L130.008 128.752C130.006 130.054 131.06 131.112 132.362 131.114L137.849 131.124C139.151 131.126 140.209 130.072 140.211 128.77L140.211 128.53C140.214 127.228 139.16 126.171 137.858 126.168Z" fill="white" stroke="white" stroke-width="2"/>
<path d="M56.2735 130.055H22.6984C21.343 130.055 20.2441 131.154 20.2441 132.509V132.582C20.2441 133.938 21.343 135.036 22.6984 135.036H56.2735C57.6289 135.036 58.7277 133.938 58.7277 132.582V132.509C58.7277 131.154 57.6289 130.055 56.2735 130.055Z" fill="white" stroke="white" stroke-width="2"/>
</svg>
