<svg width="168" height="170" viewBox="0 0 168 170" fill="none" xmlns="http://www.w3.org/2000/svg">
<path d="M95.173 1.80615H96.889C99.1965 1.97515 101.294 2.59916 103.181 3.67818C104.332 4.33252 105.719 5.47653 107.344 7.11022C120.529 20.3444 134.238 34.0498 148.474 48.2265C152.146 51.886 152.065 57.2909 147.963 60.5182C146.178 61.9222 144.095 62.401 141.714 61.9547C141.592 61.933 141.532 61.9839 141.532 62.1074C141.527 71.1382 141.528 80.6056 141.535 90.5095C141.538 94.0748 136.322 94.3121 136.328 90.5355C136.343 80.2481 136.343 69.6053 136.328 58.6071C136.328 58.5658 136.32 58.525 136.305 58.4871C136.289 58.4492 136.266 58.4149 136.237 58.3861L95.9042 18.1214C95.8868 18.1042 95.8661 18.0906 95.8434 18.0815C95.8207 18.0723 95.7964 18.0678 95.7719 18.0681C95.7474 18.0684 95.7233 18.0735 95.7008 18.0832C95.6783 18.0929 95.658 18.107 95.641 18.1246L55.555 58.3926C55.5262 58.4203 55.5034 58.4539 55.4877 58.4913C55.4721 58.5287 55.464 58.5692 55.464 58.6104C55.4553 64.1766 55.4585 69.8328 55.4737 75.5788C55.4867 79.3782 50.2736 79.5471 50.2671 75.7446C50.2585 70.9237 50.2585 66.3314 50.2671 61.9677C50.2671 61.7835 50.1772 61.7131 49.9974 61.7564C48.1449 62.2179 45.6618 61.7564 44.0791 60.7684C41.4964 59.1564 40.2798 56.7611 40.4293 53.5826C40.543 51.093 41.8203 49.5135 43.6338 47.7097C57.4248 34.0054 71.2147 20.3 85.0036 6.59346C87.8745 3.73776 91.2642 2.14199 95.173 1.80615ZM92.5339 13.8183C94.4742 11.8748 97.1522 11.9625 99.0698 13.8768C113.067 27.8628 127.16 41.9572 141.35 56.1599C142.731 57.5379 145.155 56.9789 145.783 55.1003C146.16 53.9715 145.881 52.9401 144.947 52.0063C131.317 38.4038 117.44 24.5239 103.318 10.3668C102.178 9.22708 101.179 8.44274 100.321 8.01373C96.59 6.14496 92.1569 6.74622 89.1604 9.72325C75.2979 23.4991 61.106 37.5999 46.5848 52.0258C43.7151 54.8761 47.6671 58.7501 50.3874 56.0266C64.4947 41.8911 78.5436 27.8217 92.5339 13.8183Z" fill="white" stroke="white" stroke-width="3"/>
<path d="M133.734 13.8606C133.734 12.6061 132.792 11.2281 131.333 11.1923C129.991 11.162 128.739 11.1555 127.576 11.1728C125.96 11.1923 124.823 12.3916 124.885 13.9873C124.898 14.308 124.896 14.6254 124.881 14.9396C124.735 18.0011 120.1 18.3359 119.736 15.1671C119.255 10.9486 121.595 7.14925 125.756 6.17749C127.413 5.79073 129.496 5.97599 131.268 5.97599C135.73 5.97599 138.951 9.78829 138.941 14.0751C138.93 18.7032 138.932 23.6324 138.947 28.8628C138.954 30.1693 138.034 31.3653 136.767 31.6383C135.125 31.9893 133.725 30.6243 133.728 28.9928C133.734 23.7971 133.737 18.753 133.734 13.8606Z" fill="white" stroke="white" stroke-width="3"/>
<path d="M86.307 68.8936C84.3505 68.8968 82.0852 70.4536 82.0267 72.6961C81.9791 74.5551 81.9758 76.3026 82.017 77.9384C82.0408 78.9048 81.8891 79.6447 81.562 80.1582C80.2717 82.1895 76.7584 81.533 76.7974 78.8972C76.8169 77.595 76.8082 76.1477 76.7714 74.5551C76.7302 72.7178 76.8917 71.2694 77.2557 70.2098C78.2307 67.3823 80.4212 65.117 83.2195 64.181C84.2833 63.8235 85.5823 63.6513 87.1163 63.6643C92.8472 63.7098 98.5727 63.713 104.293 63.674C105.738 63.6632 106.971 63.8268 107.991 64.1648C112.031 65.507 114.517 69.1958 114.504 73.5509C114.491 77.6698 114.498 81.7767 114.524 85.8718C114.53 87.2791 114.088 88.3938 112.736 88.9723C111.115 89.6646 109.308 88.3288 109.301 86.5933C109.288 82.2816 109.289 77.868 109.304 73.3526C109.311 70.6226 107.296 68.8611 104.647 68.8643C98.3484 68.8752 92.2351 68.8849 86.307 68.8936Z" fill="white" stroke="white" stroke-width="3"/>
<path d="M116.971 107.722C119.675 107.041 122.521 106.203 125.509 105.206C131.727 103.137 137.17 100.717 141.837 97.9456C143.521 96.9468 145.02 96.2393 146.335 95.8233C152.169 93.9773 158.029 95.0823 162.849 98.8134C164.03 99.7256 164.816 100.73 165.208 101.826C166.411 105.183 165.442 108.713 162.631 110.978C151.921 119.608 140.277 127.071 127.7 133.368C119.806 137.318 111.299 139.397 102.177 139.605C101.427 139.622 100.649 139.643 99.8435 139.666C88.0935 140.03 76.3825 140.367 64.7105 140.677C64.1028 140.69 63.7063 141.035 63.0822 140.862C61.9577 140.55 61.3001 139.846 61.1095 138.75C60.7097 136.465 62.468 135.812 64.3725 135.76C76.5688 135.415 89.2982 135.052 102.561 134.671C110.681 134.437 118.661 132.379 126.5 128.496C138.335 122.633 149.308 115.519 159.42 107.153C160.501 106.26 160.777 105.205 160.249 103.987C160.008 103.431 159.485 102.892 158.679 102.372C155.353 100.236 151.894 99.7147 148.302 100.809C147.142 101.162 145.734 101.842 144.077 102.85C141.528 104.399 138.757 105.805 135.763 107.068C130.526 109.279 125.123 111.101 119.555 112.535C117.835 112.979 116.11 113.413 114.381 113.835C114.275 113.861 114.179 113.917 114.105 113.998C111.791 116.515 108.76 117.772 105.014 117.768C99.5369 117.761 93.5958 117.758 87.1911 117.758C85.1468 117.758 84.0678 115.684 84.8933 113.881C85.3938 112.785 86.5735 112.529 87.6883 112.535C94.5134 112.587 100.662 112.586 106.136 112.532C107.264 112.521 108.463 112.074 109.73 111.19C109.823 111.122 109.881 111.032 109.902 110.92C110.143 109.643 111.115 109.106 111.498 108.173C113.13 104.215 111.735 99.8956 107.585 98.3811C106.827 98.1038 105.687 97.9705 104.166 97.9814C99.4166 98.0182 94.7821 98.0247 90.2623 98.0009C86.9538 97.9857 83.9161 97.0713 81.1492 95.2578C79.287 94.0358 77.7269 92.3815 75.9492 91.1335C69.1793 86.3755 60.3717 85.6052 53.1014 89.45C51.9292 90.0697 50.6357 90.8443 49.2208 91.7738C45.4573 94.246 42.2516 96.8774 39.6039 99.6681C38.6647 100.659 37.8944 101.781 36.9682 102.713C36.6063 103.077 36.121 103.293 35.5121 103.36C33.5036 103.578 32.2751 101.943 32.7561 100.11C32.8731 99.6616 33.2046 99.12 33.7506 98.4851C37.8944 93.6848 42.3307 90.1163 47.6998 86.759C49.9293 85.3636 51.8534 84.3637 53.4719 83.7592C59.4108 81.5405 65.4017 81.417 71.4446 83.3887C74.6188 84.4244 77.4019 85.9085 79.794 87.8412C82.1665 89.7555 84.0613 91.6048 87.1228 92.4108C88.2517 92.7098 89.7748 92.8506 91.6924 92.8333C96.6693 92.7921 101.203 92.7878 105.294 92.8203C108.32 92.843 111.427 94.1853 113.516 96.3336C116.541 99.4493 117.64 103.196 116.812 107.572C116.788 107.704 116.841 107.754 116.971 107.722Z" fill="white" stroke="white" stroke-width="3"/>
<path d="M40.7025 168.208H39.9062C39.2345 168.037 38.7665 167.775 38.5022 167.422C26.3362 151.232 14.1724 135.043 2.01073 118.853C1.36397 117.992 1.53298 116.497 2.44624 115.834C6.04078 113.219 9.34066 110.762 12.3459 108.463C14.7899 106.593 16.5579 105.462 17.6499 105.07C20.8566 103.919 23.9539 103.975 26.9418 105.239C30.0391 106.548 31.7031 108.739 33.6531 111.362C41.3319 121.686 48.9565 131.88 56.5269 141.945C60.1052 146.706 59.517 152.618 55.9192 157.116C55.2172 157.989 53.8316 159.159 51.7624 160.626C48.4083 163.003 45.272 165.266 42.3535 167.415C41.8562 167.779 41.2777 167.997 40.7025 168.208ZM28.1736 112.119C26.3568 109.681 23.5943 108.641 20.6107 109.311C19.848 109.482 18.7647 110.089 17.3607 111.131C14.1778 113.493 11.0783 115.743 8.06231 117.881C7.93881 117.968 7.92256 118.072 8.01356 118.193L40.7967 161.819C40.8296 161.862 40.8781 161.89 40.9317 161.897C40.9853 161.904 41.0396 161.89 41.0827 161.858C44.1876 159.518 47.3748 157.151 50.6444 154.756C51.3832 154.215 51.9964 153.649 52.4839 153.06C53.9107 151.334 54.3982 148.653 53.5271 146.563C53.1696 145.705 52.5901 144.743 51.7884 143.677C43.9298 133.225 36.0582 122.705 28.1736 112.119Z" fill="white" stroke="white" stroke-width="3"/>
</svg>
