<svg width="98" height="96" viewBox="0 0 98 96" fill="none" xmlns="http://www.w3.org/2000/svg">
<path fill-rule="evenodd" clip-rule="evenodd" d="M66.3643 91.8624C66.3643 93.92 64.6877 95.5967 62.63 95.5967C60.5724 95.5967 58.8958 93.92 58.8958 91.8624V85.1813C58.8958 83.1236 60.5724 81.447 62.63 81.447C64.6877 81.447 66.3643 83.1236 66.3643 85.1813V91.8624Z" fill="#FEFEFE" stroke="#31343B" stroke-width="0.720184" stroke-miterlimit="22.9256" stroke-linecap="round" stroke-linejoin="round"/>
<path fill-rule="evenodd" clip-rule="evenodd" d="M53.0028 91.8624C53.0028 93.92 51.3261 95.5967 49.2685 95.5967C47.2108 95.5967 45.5342 93.92 45.5342 91.8624V85.1813C45.5342 83.1236 47.2108 81.447 49.2685 81.447C51.3261 81.447 53.0028 83.1236 53.0028 85.1813V91.8624Z" fill="#FEFEFE" stroke="#31343B" stroke-width="0.720184" stroke-miterlimit="22.9256" stroke-linecap="round" stroke-linejoin="round"/>
<path fill-rule="evenodd" clip-rule="evenodd" d="M39.6411 91.8624C39.6411 93.92 37.9645 95.5967 35.9068 95.5967C33.8492 95.5967 32.1726 93.92 32.1726 91.8624V85.1813C32.1726 83.1236 33.8492 81.447 35.9068 81.447C37.9645 81.447 39.6411 83.1236 39.6411 85.1813V91.8624Z" fill="#FEFEFE" stroke="#31343B" stroke-width="0.720184" stroke-miterlimit="22.9256" stroke-linecap="round" stroke-linejoin="round"/>
<path fill-rule="evenodd" clip-rule="evenodd" d="M26.2772 91.8624C26.2772 93.92 24.6006 95.5967 22.5429 95.5967C20.4852 95.5967 18.8086 93.92 18.8086 91.8624V85.1813C18.8086 83.1236 20.4852 81.447 22.5429 81.447C24.6006 81.447 26.2772 83.1236 26.2772 85.1813V91.8624Z" fill="#FEFEFE" stroke="#31343B" stroke-width="0.720184" stroke-miterlimit="22.9256" stroke-linecap="round" stroke-linejoin="round"/>
<path fill-rule="evenodd" clip-rule="evenodd" d="M5.04093 78.3983C2.98326 78.3983 1.30664 76.7216 1.30664 74.664C1.30664 72.6063 2.98326 70.9297 5.04093 70.9297H11.722C13.7797 70.9297 15.4563 72.6063 15.4563 74.664C15.4563 76.7216 13.7797 78.3983 11.722 78.3983H5.04093Z" fill="#FEFEFE" stroke="#31343B" stroke-width="0.720184" stroke-miterlimit="22.9256" stroke-linecap="round" stroke-linejoin="round"/>
<path fill-rule="evenodd" clip-rule="evenodd" d="M5.04093 65.036C2.98326 65.036 1.30664 63.3593 1.30664 61.3017C1.30664 59.244 2.98326 57.5674 5.04093 57.5674H11.722C13.7797 57.5674 15.4563 59.244 15.4563 61.3017C15.4563 63.3593 13.7797 65.036 11.722 65.036H5.04093Z" fill="#FEFEFE" stroke="#31343B" stroke-width="0.720184" stroke-miterlimit="22.9256" stroke-linecap="round" stroke-linejoin="round"/>
<path fill-rule="evenodd" clip-rule="evenodd" d="M5.04093 51.6739C2.98326 51.6739 1.30664 49.9973 1.30664 47.9396C1.30664 45.8819 2.98326 44.2053 5.04093 44.2053H11.722C13.7797 44.2053 15.4563 45.8819 15.4563 47.9396C15.4563 49.9973 13.7797 51.6739 11.722 51.6739H5.04093Z" fill="#FEFEFE" stroke="#31343B" stroke-width="0.720184" stroke-miterlimit="22.9256" stroke-linecap="round" stroke-linejoin="round"/>
<path fill-rule="evenodd" clip-rule="evenodd" d="M5.04093 38.3123C2.98326 38.3123 1.30664 36.6357 1.30664 34.578C1.30664 32.5204 2.98326 30.8438 5.04093 30.8438H11.722C13.7797 30.8438 15.4563 32.5204 15.4563 34.578C15.4563 36.6357 13.7797 38.3123 11.722 38.3123H5.04093Z" fill="#FEFEFE" stroke="#31343B" stroke-width="0.720184" stroke-miterlimit="22.9256" stroke-linecap="round" stroke-linejoin="round"/>
<path fill-rule="evenodd" clip-rule="evenodd" d="M10.7059 14.2297L82.902 86.4005C83.1815 86.6799 83.3847 87.0864 83.3847 87.5437C83.3847 88.4328 82.6735 89.1441 81.7844 89.1441H9.58814C8.69903 89.1441 7.98772 88.4328 7.98772 87.5437V15.3475C7.98772 14.941 8.14015 14.5346 8.47039 14.2043C9.05467 13.5946 10.0962 13.5946 10.7059 14.2297ZM96.0356 90.084L6.99703 1.04541C6.33655 0.384929 5.49818 0.0546875 4.63447 0.0546875C3.77075 0.0546875 2.90706 0.384928 2.27198 1.02001C1.96714 1.32485 1.71311 1.7059 1.56069 2.11235C1.38287 2.51881 1.30664 2.95066 1.30664 3.38252V92.4719C1.30664 93.3864 1.68773 94.2247 2.29741 94.8344C2.90709 95.4441 3.74538 95.8251 4.6599 95.8251H93.7493C94.6638 95.8251 95.5021 95.4441 96.1118 94.8344C96.7215 94.2247 97.1026 93.3864 97.1026 92.4719C97.1026 92.0146 97.0009 91.5574 96.8485 91.1763C96.6961 90.7953 96.4674 90.4396 96.1626 90.1602L96.0356 90.084Z" fill="#FEFEFE"/>
<path fill-rule="evenodd" clip-rule="evenodd" d="M26.7867 47.8382L51.4025 72.454H24.6782V45.7043L26.7867 47.8382ZM45.4073 69.9645L27.1423 51.6995V69.9645H45.4073Z" fill="#FEFEFE"/>
<path fill-rule="evenodd" clip-rule="evenodd" d="M26.7867 47.8382L51.4025 72.454H24.6782V45.7043L26.7867 47.8382ZM45.4073 69.9645L27.1423 51.6995V69.9645H45.4073Z" fill="#FEFEFE"/>
<path fill-rule="evenodd" clip-rule="evenodd" d="M26.7867 47.8382L51.4025 72.454H24.6782V45.7043L26.7867 47.8382ZM45.4073 69.9645L27.1423 51.6995V69.9645H45.4073Z" fill="#FEFEFE"/>
<path fill-rule="evenodd" clip-rule="evenodd" d="M26.7867 47.8382L51.4025 72.454H24.6782V45.7043L26.7867 47.8382ZM45.4073 69.9645L27.1423 51.6995V69.9645H45.4073Z" fill="#FEFEFE"/>
<path fill-rule="evenodd" clip-rule="evenodd" d="M28.4132 68.6942H42.3595L28.4132 54.7478V68.6942ZM51.4031 76.1882H24.6789C22.6212 76.1882 20.9446 74.5116 20.9446 72.4539V45.7296C20.9446 44.7643 21.3002 43.8244 22.0369 43.0877C23.4849 41.6397 25.8728 41.6397 27.3208 43.0877L54.0197 69.7866C54.7055 70.4725 55.1374 71.4124 55.1374 72.4539C55.1374 74.5116 53.4608 76.1882 51.4031 76.1882Z" fill="#FEFEFE" stroke="#31343B" stroke-width="1.44011" stroke-miterlimit="22.9256" stroke-linecap="round" stroke-linejoin="round"/>
</svg>
