<svg width="96" height="101" viewBox="0 0 96 101" fill="none" xmlns="http://www.w3.org/2000/svg">
<path fill-rule="evenodd" clip-rule="evenodd" d="M43.2817 41.2722V41.4754H75.5693V41.2722C75.5693 39.0367 74.0197 36.9028 71.5302 35.2262C68.5072 33.1939 64.2394 31.9492 59.4382 31.9492C54.637 31.9492 50.3693 33.1939 47.3463 35.2262L47.2192 35.3024C44.7805 36.979 43.2817 39.0875 43.2817 41.2722ZM34.5938 45.8194V41.2722C34.5938 36.0391 37.5406 31.4157 42.3418 28.1387L42.545 27.9862C46.9398 25.0649 52.9095 23.2612 59.4382 23.2612C65.9668 23.2612 71.9366 25.0649 76.3314 27.9862H76.3568C81.2596 31.2633 84.2826 35.9375 84.2826 41.2468V45.794C84.2826 48.1819 82.3266 50.1379 79.9387 50.1379H38.9631C36.5244 50.1887 34.5938 48.2327 34.5938 45.8194Z" fill="#FEFEFE"/>
<path fill-rule="evenodd" clip-rule="evenodd" d="M9.14109 95.9148C9.14109 98.3027 7.18506 100.259 4.79715 100.259C2.40924 100.259 0.453125 98.3027 0.453125 95.9148V24.2013C0.453125 17.3678 4.21283 11.2964 10.3096 6.97784C15.9746 2.96412 23.6717 0.5 32.131 0.5C40.5649 0.5 48.2875 2.98952 53.9525 6.97784C60.0493 11.2964 63.809 17.3678 63.809 24.2013V27.6053C63.809 29.9932 61.8529 31.9493 59.465 31.9493C57.0771 31.9493 55.1211 29.9932 55.1211 27.6053V24.2013C55.1211 20.34 52.7585 16.7327 48.9735 14.04C44.7311 11.0424 38.7867 9.18793 32.1565 9.18793C25.5008 9.18793 19.5564 11.0424 15.3395 14.04C11.529 16.7327 9.19187 20.34 9.19187 24.2013V95.9148H9.14109Z" fill="#FEFEFE"/>
<path fill-rule="evenodd" clip-rule="evenodd" d="M63.7829 61.7728C63.7829 64.1608 61.8268 66.1168 59.4389 66.1168C57.051 66.1168 55.095 64.1608 55.095 61.7728V59.4865C55.095 57.0986 57.051 55.1426 59.4389 55.1426C61.8268 55.1426 63.7829 57.0986 63.7829 59.4865V61.7728Z" fill="#FEFEFE"/>
<path fill-rule="evenodd" clip-rule="evenodd" d="M73.1556 61.0358C72.3427 58.7749 73.5113 56.3108 75.7468 55.4979C78.0077 54.685 80.4718 55.8535 81.2847 58.089L82.0722 60.2229C82.8851 62.4838 81.7166 64.9479 79.4811 65.7608C77.2202 66.5737 74.7561 65.4052 73.9432 63.1697L73.1556 61.0358Z" fill="#FEFEFE"/>
<path fill-rule="evenodd" clip-rule="evenodd" d="M86.8248 95.1784C86.0119 92.9175 87.1805 90.4534 89.416 89.6405C91.6769 88.8276 94.141 89.9961 94.9539 92.2316L95.7414 94.3655C96.5543 96.6264 95.3858 99.0905 93.1503 99.9034C90.8894 100.716 88.4252 99.5478 87.6123 97.3123L86.8248 95.1784Z" fill="#FEFEFE"/>
<path fill-rule="evenodd" clip-rule="evenodd" d="M63.7829 95.9147C63.7829 98.3026 61.8268 100.259 59.4389 100.259C57.051 100.259 55.095 98.3026 55.095 95.9147V93.6284C55.095 91.2405 57.051 89.2844 59.4389 89.2844C61.8268 89.2844 63.7829 91.2405 63.7829 93.6284V95.9147Z" fill="#FEFEFE"/>
<path fill-rule="evenodd" clip-rule="evenodd" d="M63.7829 79.9871C63.7829 82.375 61.8268 84.3311 59.4389 84.3311C57.051 84.3311 55.095 82.375 55.095 79.9871V75.4399C55.095 73.052 57.051 71.0959 59.4389 71.0959C61.8268 71.0959 63.7829 73.052 63.7829 75.4399V79.9871Z" fill="#FEFEFE"/>
<path fill-rule="evenodd" clip-rule="evenodd" d="M79.6082 77.04C78.7953 74.7791 79.9639 72.315 82.1994 71.502C84.4603 70.6891 86.9244 71.8577 87.7373 74.0932L89.2869 78.3609C90.0998 80.6218 88.9313 83.0859 86.6958 83.8989C84.4349 84.7118 81.9708 83.5432 81.1579 81.3077L79.6082 77.04Z" fill="#FEFEFE"/>
</svg>
