<svg width="97" height="96" viewBox="0 0 97 96" fill="none" xmlns="http://www.w3.org/2000/svg">
<path fill-rule="evenodd" clip-rule="evenodd" d="M66.2398 91.8624C66.2398 93.92 64.5633 95.5967 62.5056 95.5967C60.4479 95.5967 58.7712 93.92 58.7712 91.8624V85.1813C58.7712 83.1236 60.4479 81.447 62.5056 81.447C64.5633 81.447 66.2398 83.1236 66.2398 85.1813V91.8624Z" fill="#FEFEFE" stroke="#31343B" stroke-width="0.720184" stroke-miterlimit="22.9256" stroke-linecap="round" stroke-linejoin="round"/>
<path fill-rule="evenodd" clip-rule="evenodd" d="M52.8511 91.8624C52.8511 93.92 51.1744 95.5967 49.1168 95.5967C47.0591 95.5967 45.3826 93.92 45.3826 91.8624V85.1813C45.3826 83.1236 47.0591 81.447 49.1168 81.447C51.1744 81.447 52.8511 83.1236 52.8511 85.1813V91.8624Z" fill="#FEFEFE" stroke="#31343B" stroke-width="0.720184" stroke-miterlimit="22.9256" stroke-linecap="round" stroke-linejoin="round"/>
<path fill-rule="evenodd" clip-rule="evenodd" d="M39.4896 91.8624C39.4896 93.92 37.8129 95.5967 35.7552 95.5967C33.6975 95.5967 32.021 93.92 32.021 91.8624V85.1813C32.021 83.1236 33.6975 81.447 35.7552 81.447C37.8129 81.447 39.4896 83.1236 39.4896 85.1813V91.8624Z" fill="#FEFEFE" stroke="#31343B" stroke-width="0.720184" stroke-miterlimit="22.9256" stroke-linecap="round" stroke-linejoin="round"/>
<path fill-rule="evenodd" clip-rule="evenodd" d="M26.128 91.8624C26.128 93.92 24.4513 95.5967 22.3936 95.5967C20.336 95.5967 18.6594 93.92 18.6594 91.8624V85.1813C18.6594 83.1236 20.336 81.447 22.3936 81.447C24.4513 81.447 26.128 83.1236 26.128 85.1813V91.8624Z" fill="#FEFEFE" stroke="#31343B" stroke-width="0.720184" stroke-miterlimit="22.9256" stroke-linecap="round" stroke-linejoin="round"/>
<path fill-rule="evenodd" clip-rule="evenodd" d="M4.91405 78.3983C2.85639 78.3983 1.17969 76.7216 1.17969 74.664C1.17969 72.6063 2.85639 70.9297 4.91405 70.9297H11.595C13.6526 70.9297 15.3293 72.6063 15.3293 74.664C15.3293 76.7216 13.6526 78.3983 11.595 78.3983H4.91405Z" fill="#FEFEFE" stroke="#31343B" stroke-width="0.720184" stroke-miterlimit="22.9256" stroke-linecap="round" stroke-linejoin="round"/>
<path fill-rule="evenodd" clip-rule="evenodd" d="M4.91405 65.036C2.85639 65.036 1.17969 63.3593 1.17969 61.3017C1.17969 59.244 2.85639 57.5674 4.91405 57.5674H11.595C13.6526 57.5674 15.3293 59.244 15.3293 61.3017C15.3293 63.3593 13.6526 65.036 11.595 65.036H4.91405Z" fill="#FEFEFE" stroke="#31343B" stroke-width="0.720184" stroke-miterlimit="22.9256" stroke-linecap="round" stroke-linejoin="round"/>
<path fill-rule="evenodd" clip-rule="evenodd" d="M4.91405 51.6739C2.85639 51.6739 1.17969 49.9973 1.17969 47.9396C1.17969 45.8819 2.85639 44.2053 4.91405 44.2053H11.595C13.6526 44.2053 15.3293 45.8819 15.3293 47.9396C15.3293 49.9973 13.6526 51.6739 11.595 51.6739H4.91405Z" fill="#FEFEFE" stroke="#31343B" stroke-width="0.720184" stroke-miterlimit="22.9256" stroke-linecap="round" stroke-linejoin="round"/>
<path fill-rule="evenodd" clip-rule="evenodd" d="M4.91405 38.3123C2.85639 38.3123 1.17969 36.6357 1.17969 34.578C1.17969 32.5204 2.85639 30.8438 4.91405 30.8438H11.595C13.6526 30.8438 15.3293 32.5204 15.3293 34.578C15.3293 36.6357 13.6526 38.3123 11.595 38.3123H4.91405Z" fill="#FEFEFE" stroke="#31343B" stroke-width="0.720184" stroke-miterlimit="22.9256" stroke-linecap="round" stroke-linejoin="round"/>
<path fill-rule="evenodd" clip-rule="evenodd" d="M10.5802 14.2297L82.751 86.4005C83.0304 86.6799 83.2336 87.0864 83.2336 87.5437C83.2336 88.4328 82.5223 89.1441 81.6332 89.1441H9.43706C8.54794 89.1441 7.83664 88.4328 7.83664 87.5437V15.3475C7.83664 14.941 7.98906 14.5346 8.31931 14.2043C8.92898 13.5946 9.94515 13.5946 10.5802 14.2297ZM95.8846 90.084L6.84587 1.04541C6.18538 0.384929 5.34709 0.0546875 4.48338 0.0546875C3.61967 0.0546875 2.75598 0.384928 2.12089 1.02001C1.81605 1.32485 1.56208 1.7059 1.38425 2.11235C1.23183 2.51881 1.13013 2.95066 1.13013 3.38252V92.4719C1.13013 93.3864 1.51121 94.2247 2.12089 94.8344C2.73057 95.4441 3.56886 95.8251 4.48338 95.8251H93.5728C94.4873 95.8251 95.3256 95.4441 95.9353 94.8344C96.545 94.2247 96.926 93.3864 96.926 92.4719C96.926 92.0146 96.8245 91.5574 96.6721 91.1763C96.5197 90.7953 96.291 90.4396 95.9861 90.1602L95.8846 90.084Z" fill="#FEFEFE"/>
<path fill-rule="evenodd" clip-rule="evenodd" d="M26.6349 47.8382L51.2507 72.454H24.5264V45.7043L26.6349 47.8382ZM45.2808 69.9645L27.0158 51.6995V69.9645H45.2808Z" fill="#FEFEFE"/>
<path fill-rule="evenodd" clip-rule="evenodd" d="M26.6349 47.8382L51.2507 72.454H24.5264V45.7043L26.6349 47.8382ZM45.2808 69.9645L27.0158 51.6995V69.9645H45.2808Z" fill="#FEFEFE"/>
<path fill-rule="evenodd" clip-rule="evenodd" d="M26.6349 47.8382L51.2507 72.454H24.5264V45.7043L26.6349 47.8382ZM45.2808 69.9645L27.0158 51.6995V69.9645H45.2808Z" fill="#FEFEFE"/>
<path fill-rule="evenodd" clip-rule="evenodd" d="M26.6349 47.8382L51.2507 72.454H24.5264V45.7043L26.6349 47.8382ZM45.2808 69.9645L27.0158 51.6995V69.9645H45.2808Z" fill="#FEFEFE"/>
<path fill-rule="evenodd" clip-rule="evenodd" d="M28.2615 68.694H42.2079L28.2615 54.7476V68.694ZM51.2515 76.188H24.5272C22.4695 76.188 20.793 74.5113 20.793 72.4537V45.7294C20.793 44.7641 21.1486 43.8242 21.8853 43.0875C23.3333 41.6141 25.7211 41.6141 27.1691 43.0875L53.868 69.7863C54.5539 70.4722 54.9857 71.4121 54.9857 72.4537C54.9857 74.5113 53.3092 76.188 51.2515 76.188Z" fill="#FEFEFE" stroke="#31343B" stroke-width="1.44011" stroke-miterlimit="22.9256" stroke-linecap="round" stroke-linejoin="round"/>
</svg>
