<svg width="100" height="98" viewBox="0 0 100 98" fill="none" xmlns="http://www.w3.org/2000/svg">
<path fill-rule="evenodd" clip-rule="evenodd" d="M90.4322 36.3212C89.8479 35.9402 89.4668 35.2797 89.4668 34.5938V2.28078C89.4668 1.18844 88.5777 0.299316 87.4854 0.299316H81.541C80.4487 0.299316 79.5596 1.18844 79.5596 2.28078V8.22515C79.5596 9.3175 78.6704 10.2066 77.5781 10.2066H22.1481C21.0557 10.2066 20.1666 9.3175 20.1666 8.22515V2.28078C20.1666 1.18844 19.2775 0.299316 18.1852 0.299316H12.2408C11.1485 0.299316 10.2593 1.18844 10.2593 2.28078V34.5938C10.2593 35.3051 9.8783 35.9402 9.29402 36.3212C3.93393 39.8523 0.352051 45.8728 0.352051 52.7571V72.5463C0.352051 73.8673 0.885519 75.1121 1.80004 76.052C2.73996 76.9919 3.98474 77.5 5.30571 77.5H8.27789C9.37023 77.5 10.2593 78.3891 10.2593 79.4814V95.3077C10.2593 96.4 11.1485 97.2891 12.2408 97.2891H18.1852C19.2775 97.2891 20.1666 96.4 20.1666 95.3077V79.4814C20.1666 78.3891 21.0557 77.5 22.1481 77.5H77.5781C78.6704 77.5 79.5596 78.3891 79.5596 79.4814V95.3077C79.5596 96.4 80.4487 97.2891 81.541 97.2891H87.4854C88.5777 97.2891 89.4668 96.4 89.4668 95.3077V79.4814C89.4668 78.3891 90.356 77.5 91.4483 77.5H94.4205C95.7415 77.5 96.9862 76.9665 97.9261 76.052C98.8661 75.1121 99.3741 73.8673 99.3741 72.5463V52.7571C99.3487 45.8474 95.7669 39.8523 90.4322 36.3212ZM77.5781 20.0885C78.6704 20.0885 79.5596 20.9776 79.5596 22.0699V30.9865C79.5596 32.0789 78.6704 32.968 77.5781 32.968H56.7982C55.7059 32.968 54.8167 32.0789 54.8167 30.9865V22.0699C54.8167 20.9776 55.7059 20.0885 56.7982 20.0885H77.5781ZM20.1666 22.0699C20.1666 20.9776 21.0557 20.0885 22.1481 20.0885H42.928C44.0203 20.0885 44.9094 20.9776 44.9094 22.0699V30.9865C44.9094 32.0789 44.0203 32.968 42.928 32.968H22.1481C21.0557 32.968 20.1666 32.0789 20.1666 30.9865V22.0699ZM89.4668 65.6112C89.4668 66.7036 88.5777 67.5927 87.4854 67.5927H12.2662C11.1739 67.5927 10.2848 66.7036 10.2848 65.6112V52.7317C10.2848 47.27 14.7303 42.8245 20.192 42.8245H79.585C85.0467 42.8245 89.4923 47.27 89.4923 52.7317V65.6112H89.4668Z" fill="#FEFEFE"/>
</svg>
