<svg width="100" height="99" viewBox="0 0 100 99" fill="none" xmlns="http://www.w3.org/2000/svg">
<path fill-rule="evenodd" clip-rule="evenodd" d="M15.7391 53.7708V56.235H18.2033H94.6926C95.2261 56.235 95.7341 56.4382 96.1152 56.8192C96.4962 57.2003 96.6995 57.7084 96.6995 58.2418C96.6995 58.7753 96.4962 59.2834 96.1152 59.6644C95.7341 60.0455 95.2261 60.2487 94.6926 60.2487H90.1962H87.7321V62.7128V76.202C87.7321 78.4629 87.0208 80.6729 85.6999 82.5274C84.3789 84.3818 82.5244 85.779 80.3905 86.5411L78.7393 87.1254V88.8782V94.2129C78.7393 94.7464 78.5361 95.2544 78.1551 95.6355C77.774 96.0165 77.266 96.2198 76.7325 96.2198C76.199 96.2198 75.6909 96.0165 75.3099 95.6355C74.9288 95.2544 74.7256 94.7464 74.7256 94.2129V89.7165V87.2524H72.2615H27.2723H24.8081V89.7165V94.2129C24.8081 94.7464 24.6049 95.2544 24.2238 95.6355C23.8428 96.0165 23.3347 96.2198 22.8013 96.2198C22.2678 96.2198 21.7597 96.0165 21.3787 95.6355C20.9976 95.2544 20.7944 94.7464 20.7944 94.2129V88.8782V87.1254L19.0416 86.5919C16.9077 85.8298 15.0533 84.4326 13.7323 82.5782C12.4113 80.7238 11.7 78.5137 11.7 76.2528V62.7636V60.2995H9.23591H4.73951C4.20604 60.2995 3.69798 60.0963 3.31693 59.7152C2.93588 59.3342 2.73267 58.8261 2.73267 58.2926C2.73267 57.7592 2.93588 57.2511 3.31693 56.8701C3.69798 56.489 4.20604 56.2858 4.73951 56.2858H9.23591H11.7V53.8217V19.9336C11.7 17.4187 12.3097 14.9292 13.4783 12.6937C14.6468 10.4582 16.3488 8.55297 18.4319 7.13039C20.515 5.7078 22.9029 4.81868 25.4178 4.51384C27.9327 4.2344 30.4731 4.56465 32.8102 5.47917L34.0803 5.96183L35.1727 5.14892C37.713 3.29448 40.863 2.37997 43.9876 2.634C47.1377 2.86263 50.0844 4.23441 52.3199 6.4445L57.0957 11.2203C57.4768 11.6014 57.68 12.1094 57.68 12.6429C57.68 13.1764 57.4768 13.6844 57.0957 14.0655L41.1933 29.968C41.0154 30.1458 40.7868 30.2982 40.5328 30.3998C40.2788 30.5014 40.0247 30.5522 39.7453 30.5522C39.4912 30.5522 39.2118 30.5014 38.9578 30.3998C38.7037 30.2982 38.5005 30.1458 38.2973 29.968L33.5469 25.2175C31.8195 23.4901 30.6255 21.3054 30.0666 18.9429C29.5077 16.555 29.6094 14.0909 30.3715 11.7538L31.3368 8.8324L28.263 8.52757C25.9767 8.29894 23.6904 8.7562 21.6835 9.84854C19.8545 10.8393 18.3303 12.2873 17.2887 14.0655C16.2472 15.8437 15.6884 17.876 15.7138 19.9336V53.7708H15.7391ZM42.9461 6.62232C41.3457 6.62232 39.7961 7.02878 38.4243 7.81628L38.1703 7.56224L36.4174 9.31506C34.69 11.0425 33.7247 13.3796 33.7247 15.8437C33.7247 18.2824 34.69 20.6449 36.4174 22.3724L38.0179 23.9728L39.7707 25.7256L41.5235 23.9728L51.0751 14.4211L52.828 12.6683L51.0751 10.9155L49.4747 9.31506C47.7473 7.58764 45.4102 6.62232 42.9461 6.62232ZM18.2033 60.2995H15.7391V62.7636V76.2528C15.7391 78.1072 16.4758 79.8854 17.7714 81.181C19.067 82.4766 20.8452 83.2133 22.6997 83.2133H76.6817C78.5361 83.2133 80.3144 82.4766 81.6099 81.181C82.9055 79.8854 83.6422 78.1072 83.6422 76.2528V62.7636V60.2995H81.1781H18.2033Z" fill="#FEFEFE"/>
<path fill-rule="evenodd" clip-rule="evenodd" d="M18.2033 53.7706H94.6926C95.2769 53.7706 95.8612 53.8976 96.4201 54.1262C96.9535 54.3549 97.4616 54.6851 97.868 55.0915C98.2999 55.5234 98.6302 56.0061 98.8334 56.5395C99.062 57.0984 99.189 57.6827 99.189 58.267C99.189 58.8512 99.062 59.4355 98.8334 59.9944C98.6048 60.5279 98.2745 61.0359 97.868 61.4424C97.4616 61.8488 96.9535 62.1791 96.4201 62.4077C95.8612 62.6363 95.2769 62.7633 94.6926 62.7633H90.1962V76.2525C90.1962 77.6497 89.9676 79.0215 89.5612 80.3424C89.1547 81.638 88.5196 82.8828 87.7067 84.0259C86.8938 85.1691 85.9285 86.1598 84.8361 86.9727C83.7438 87.7856 82.5245 88.4461 81.2035 88.9288V94.2634C81.2035 94.8477 81.0765 95.432 80.8478 95.9909C80.6192 96.5243 80.289 97.0324 79.8825 97.4389C79.476 97.8453 78.968 98.1756 78.4091 98.4042C77.8502 98.6328 77.266 98.7598 76.7071 98.7598C76.1482 98.7598 75.5385 98.6328 75.0051 98.4042C74.4716 98.1756 73.9636 97.8453 73.5571 97.4389C73.1507 97.0324 72.8204 96.5243 72.5918 95.9909C72.3631 95.432 72.2361 94.8477 72.2361 94.2889V89.7925H27.2469V94.2889C27.2469 94.8731 27.1198 95.4574 26.8912 95.9909C26.6626 96.5243 26.3324 97.0324 25.9259 97.4389C25.5195 97.8453 25.0114 98.1756 24.4525 98.4042C23.8936 98.6328 23.3094 98.7598 22.7505 98.7598C22.1662 98.7598 21.5819 98.6328 21.0484 98.4042C20.515 98.1756 20.0069 97.8453 19.6005 97.4389C19.194 97.007 18.8638 96.5243 18.6351 95.9909C18.4065 95.432 18.2795 94.8477 18.2795 94.2889V88.9541C16.9585 88.4969 15.7392 87.8364 14.6468 86.9981C13.5545 86.1852 12.5892 85.1691 11.7762 84.0513C10.9633 82.9082 10.3537 81.6634 9.92182 80.3678C9.51537 79.0723 9.28674 77.7005 9.28674 76.2779V62.7888H4.79034C4.20606 62.7888 3.62179 62.6617 3.08832 62.4331C2.55485 62.2045 2.07217 61.8742 1.64032 61.4678C1.20846 61.0359 0.87822 60.5533 0.64959 59.9944C0.42096 59.4355 0.293945 58.8512 0.293945 58.2924C0.293945 57.7081 0.42096 57.1238 0.64959 56.5649C0.87822 56.0315 1.20848 55.5234 1.61493 55.117C2.02138 54.7105 2.52947 54.3803 3.06293 54.1516C3.62181 53.923 4.20608 53.796 4.76495 53.796H9.26131V19.9334C9.26131 18.46 9.43916 17.012 9.76941 15.6148C10.1251 14.1922 10.6331 12.8459 11.319 11.5503C12.0049 10.2547 12.8432 9.03536 13.8085 7.96842C14.7738 6.87607 15.8662 5.91075 17.0855 5.09784C18.2795 4.28494 19.5751 3.59905 20.9468 3.09099C22.3186 2.58292 23.7412 2.22727 25.1892 2.07485C26.6118 1.92243 28.0852 1.92243 29.5332 2.12566C30.9812 2.30348 32.4037 2.68453 33.7501 3.19259C35.2743 2.07485 36.9509 1.26194 38.7292 0.753879C40.5074 0.245812 42.3618 0.0425926 44.2417 0.195012C46.0961 0.347432 47.8997 0.80469 49.6018 1.59219C51.2784 2.35429 52.828 3.42122 54.149 4.7422L58.9248 9.51802C59.3566 9.94988 59.6869 10.4325 59.8901 10.9914C60.1187 11.5503 60.2458 12.1346 60.2458 12.6934C60.2458 13.2777 60.1187 13.862 59.8901 14.3954C59.6615 14.9289 59.3312 15.437 58.9248 15.8688L42.2856 32.508H42.057C41.9046 32.6096 41.7267 32.6858 41.5743 32.762C41.3203 32.8891 41.0154 32.9653 40.736 33.0161C40.4312 33.0669 40.1517 33.1177 39.8469 33.1177C39.5675 33.1177 39.2626 33.0923 38.9832 33.0415C38.7292 32.9907 38.4497 32.8891 38.1449 32.7874C37.9671 32.7112 37.8147 32.635 37.6368 32.5334H37.4082L31.9211 27.0463L31.7432 26.8939C30.7525 25.8777 29.9142 24.76 29.2537 23.5406C28.5424 22.2705 28.0344 20.9241 27.7041 19.5269C27.3739 18.1297 27.2469 16.6817 27.2977 15.2592C27.3485 13.8112 27.6279 12.3886 28.0598 11.0168C27.1707 10.9406 26.2815 10.966 25.3924 11.1438C24.5033 11.3217 23.665 11.6265 22.8775 12.0584C22.1662 12.4394 21.5057 12.9221 20.9215 13.4809C20.3372 14.0398 19.8291 14.6749 19.4226 15.3608C19.0162 16.0467 18.7114 16.8088 18.4827 17.5709C18.2795 18.3584 18.1525 19.1713 18.1779 19.9588V19.9842V53.7706H18.2033ZM42.9461 9.11157C42.3364 9.11157 41.7521 9.18777 41.2187 9.31479C40.6852 9.46721 40.1264 9.67044 39.6183 9.97528L38.78 10.4579L38.1703 11.0676C37.5352 11.7027 37.0271 12.4648 36.6969 13.2523C36.3666 14.0652 36.1888 14.9289 36.1888 15.8434C36.1888 16.758 36.3666 17.6217 36.6969 18.4346C37.0271 19.2221 37.4844 19.9334 38.0941 20.5685C42.184 24.6584 42.7937 19.1713 49.2969 12.668C49.2969 12.6426 47.9251 11.2963 47.6965 11.0676C47.0614 10.4325 46.3247 9.94988 45.5118 9.61964C44.7497 9.28939 43.8606 9.11157 42.9461 9.11157ZM18.2033 62.7633V76.2525C18.2033 76.8622 18.3303 77.4464 18.5335 77.9799C18.7622 78.5134 19.0924 79.0215 19.4988 79.4279C19.9307 79.8598 20.4134 80.19 20.9468 80.3932C21.4803 80.6219 22.0646 80.7235 22.6743 80.7235H76.6563C77.266 80.7235 77.8502 80.5965 78.3837 80.3932C78.9172 80.1646 79.4252 79.8344 79.8317 79.4025C80.2635 78.9707 80.5684 78.488 80.797 77.9545C81.0257 77.4211 81.1273 76.8368 81.1273 76.2271V62.7379L18.2033 62.7633Z" fill="#FEFEFE"/>
</svg>

