<svg width="81" height="81" viewBox="0 0 81 81" fill="none" xmlns="http://www.w3.org/2000/svg">
<path fill-rule="evenodd" clip-rule="evenodd" d="M24.4025 0.288221C28.6658 0.0919546 30.0252 0.0483398 40.8852 0.0483398C51.7453 0.0483398 53.1046 0.0955891 57.3644 0.288221C61.6241 0.480853 64.5317 1.16052 67.0759 2.14548C69.74 3.15226 72.157 4.72602 74.156 6.76138C76.1914 8.75676 77.7615 11.1701 78.7647 13.8379C79.7533 16.3821 80.4293 19.2897 80.6256 23.5422C80.8218 27.8128 80.8654 29.1721 80.8654 40.0285C80.8654 50.8886 80.8182 52.248 80.6256 56.5113C80.4329 60.7637 79.7533 63.6714 78.7647 66.2156C77.7615 68.8837 76.1888 71.3011 74.156 73.2993C72.157 75.3347 69.74 76.9048 67.0759 77.908C64.5317 78.8966 61.6241 79.5726 57.3716 79.7689C53.1046 79.9651 51.7453 80.0088 40.8852 80.0088C30.0252 80.0088 28.6658 79.9615 24.4025 79.7689C20.15 79.5762 17.2424 78.8966 14.6982 77.908C12.0301 76.9047 9.61279 75.332 7.61444 73.2993C5.58046 71.3028 4.00646 68.8866 3.00217 66.2192C2.01721 63.675 1.34118 60.7674 1.14491 56.5149C0.948644 52.2443 0.905029 50.885 0.905029 40.0285C0.905029 29.1685 0.952279 27.8091 1.14491 23.5494C1.33754 19.2897 2.01721 16.3821 3.00217 13.8379C4.00794 11.1704 5.58315 8.75426 7.61807 6.75775C9.61359 4.72421 12.0285 3.15023 14.6946 2.14548C17.2388 1.16052 20.1464 0.484488 24.3989 0.288221H24.4025ZM57.0409 7.48466C52.8248 7.29203 51.56 7.25205 40.8852 7.25205C30.2105 7.25205 28.9457 7.29203 24.7296 7.48466C20.8297 7.66275 18.7144 8.31334 17.3042 8.86216C15.4397 9.58907 14.1058 10.4505 12.7065 11.8498C11.38 13.1402 10.3592 14.7112 9.71885 16.4475C9.17003 17.8577 8.51944 19.973 8.34135 23.8729C8.14872 28.089 8.10874 29.3538 8.10874 40.0285C8.10874 50.7033 8.14872 51.9681 8.34135 56.1842C8.51944 60.0841 9.17003 62.1994 9.71885 63.6096C10.3585 65.3433 11.3798 66.9171 12.7065 68.2073C13.9967 69.5339 15.5705 70.5553 17.3042 71.1949C18.7144 71.7438 20.8297 72.3943 24.7296 72.5724C28.9457 72.7651 30.2069 72.805 40.8852 72.805C51.5636 72.805 52.8248 72.7651 57.0409 72.5724C60.9408 72.3943 63.0561 71.7438 64.4663 71.1949C66.3308 70.468 67.6647 69.6066 69.064 68.2073C70.3906 66.9171 71.4119 65.3433 72.0516 63.6096C72.6004 62.1994 73.251 60.0841 73.4291 56.1842C73.6218 51.9681 73.6617 50.7033 73.6617 40.0285C73.6617 29.3538 73.6218 28.089 73.4291 23.8729C73.251 19.973 72.6004 17.8577 72.0516 16.4475C71.3247 14.583 70.4633 13.2491 69.064 11.8498C67.7735 10.5234 66.2025 9.50261 64.4663 8.86216C63.0561 8.31334 60.9408 7.66275 57.0409 7.48466ZM35.7787 52.3534C38.6306 53.5405 41.8062 53.7007 44.7631 52.8067C47.72 51.9126 50.2747 50.0197 51.991 47.4512C53.7074 44.8828 54.4787 41.7981 54.1734 38.7241C53.868 35.6501 52.505 32.7775 50.3169 30.5969C48.9221 29.2029 47.2356 28.1356 45.3788 27.4717C43.5219 26.8078 41.541 26.5638 39.5786 26.7574C37.6162 26.9509 35.7211 27.5772 34.0297 28.591C32.3384 29.6049 30.8929 30.9812 29.7973 32.6208C28.7017 34.2603 27.9832 36.1224 27.6936 38.073C27.4041 40.0236 27.5506 42.0141 28.1226 43.9012C28.6946 45.7884 29.678 47.5252 31.0018 48.9867C32.3257 50.4482 33.9571 51.598 35.7787 52.3534ZM26.3542 25.4976C28.2625 23.5893 30.5279 22.0756 33.0211 21.0429C35.5144 20.0102 38.1866 19.4786 40.8852 19.4786C43.5839 19.4786 46.2561 20.0102 48.7494 21.0429C51.2426 22.0756 53.508 23.5893 55.4162 25.4976C57.3245 27.4058 58.8382 29.6712 59.8709 32.1644C60.9036 34.6577 61.4352 37.3299 61.4352 40.0285C61.4352 42.7272 60.9036 45.3994 59.8709 47.8927C58.8382 50.3859 57.3245 52.6513 55.4162 54.5595C51.5624 58.4134 46.3354 60.5785 40.8852 60.5785C35.4351 60.5785 30.2081 58.4134 26.3542 54.5595C22.5004 50.7057 20.3353 45.4787 20.3353 40.0285C20.3353 34.5784 22.5004 29.3514 26.3542 25.4976ZM65.9928 22.539C66.4657 22.093 66.8442 21.5565 67.1061 20.9615C67.3679 20.3665 67.5077 19.725 67.5172 19.075C67.5267 18.425 67.4056 17.7797 67.1613 17.1774C66.9169 16.575 66.5541 16.0277 66.0944 15.5681C65.6348 15.1084 65.0875 14.7456 64.4852 14.5012C63.8828 14.2569 63.2375 14.1358 62.5875 14.1453C61.9375 14.1548 61.296 14.2946 60.701 14.5564C60.106 14.8183 59.5696 15.1968 59.1235 15.6697C58.2559 16.5893 57.781 17.8109 57.7994 19.075C57.8178 20.3392 58.3282 21.5463 59.2222 22.4403C60.1162 23.3343 61.3233 23.8447 62.5875 23.8631C63.8516 23.8815 65.0732 23.4066 65.9928 22.539Z" fill="#FF2700"/>
</svg>
