<svg width="706" height="706" viewBox="0 0 706 706" fill="none" xmlns="http://www.w3.org/2000/svg">
<g filter="url(#filter0_d_4_8)">
<rect x="53" y="53" width="600" height="600" rx="81.3841" fill="white"/>
</g>
<path d="M138.32 513V470.82H146.48V513H138.32ZM155.136 513V470.82H160.836L163.296 478.98V513H155.136ZM184.296 513L159.276 480.6L160.836 470.82L185.856 503.22L184.296 513ZM184.296 513L181.956 505.08V470.82H190.176V513H184.296ZM212.23 513L195.61 470.82H204.43L217.27 504.96H213.85L226.81 470.82H235.51L218.71 513H212.23ZM241.035 513V470.82H249.195V513H241.035ZM247.035 513V505.8H270.375V513H247.035ZM247.035 494.94V487.98H268.275V494.94H247.035ZM247.035 478.02V470.82H270.075V478.02H247.035ZM288.314 513.6C284.914 513.6 281.994 513.02 279.554 511.86C277.154 510.7 274.974 508.96 273.014 506.64L278.414 501.24C279.654 502.88 281.094 504.16 282.734 505.08C284.374 505.96 286.374 506.4 288.734 506.4C290.854 506.4 292.534 505.98 293.774 505.14C295.054 504.3 295.694 503.14 295.694 501.66C295.694 500.38 295.334 499.34 294.614 498.54C293.894 497.74 292.934 497.06 291.734 496.5C290.574 495.94 289.274 495.44 287.834 495C286.434 494.52 285.014 493.98 283.574 493.38C282.174 492.78 280.874 492.04 279.674 491.16C278.514 490.24 277.574 489.08 276.854 487.68C276.134 486.24 275.774 484.44 275.774 482.28C275.774 479.72 276.394 477.54 277.634 475.74C278.874 473.94 280.574 472.56 282.734 471.6C284.894 470.64 287.334 470.16 290.054 470.16C292.934 470.16 295.534 470.7 297.854 471.78C300.174 472.86 302.074 474.26 303.554 475.98L298.154 481.38C296.914 480.02 295.634 479.02 294.314 478.38C293.034 477.74 291.574 477.42 289.934 477.42C288.054 477.42 286.574 477.78 285.494 478.5C284.414 479.22 283.874 480.26 283.874 481.62C283.874 482.78 284.234 483.72 284.954 484.44C285.674 485.16 286.614 485.78 287.774 486.3C288.974 486.82 290.274 487.32 291.674 487.8C293.114 488.28 294.534 488.82 295.934 489.42C297.374 490.02 298.674 490.8 299.834 491.76C301.034 492.72 301.994 493.96 302.714 495.48C303.434 496.96 303.794 498.8 303.794 501C303.794 504.92 302.414 508 299.654 510.24C296.894 512.48 293.114 513.6 288.314 513.6ZM318.975 513V471.72H327.195V513H318.975ZM305.535 478.08V470.82H340.635V478.08H305.535ZM346.269 513V470.82H354.429V513H346.269ZM363.086 513V470.82H368.846L385.946 498.18H382.646L399.686 470.82H405.446V513H397.346V484.8L398.906 485.28L387.026 504.36H381.506L369.626 485.28L371.246 484.8V513H363.086ZM414.062 513V470.82H422.222V513H414.062ZM420.062 513V505.8H443.402V513H420.062ZM420.062 494.94V487.98H441.302V494.94H420.062ZM420.062 478.02V470.82H443.102V478.02H420.062ZM450.156 513V470.82H455.856L458.316 478.98V513H450.156ZM479.316 513L454.296 480.6L455.856 470.82L480.876 503.22L479.316 513ZM479.316 513L476.976 505.08V470.82H485.196V513H479.316ZM504.19 513V471.72H512.41V513H504.19ZM490.75 478.08V470.82H525.85V478.08H490.75ZM548.705 513.66C545.625 513.66 542.745 513.1 540.065 511.98C537.425 510.86 535.105 509.32 533.105 507.36C531.145 505.36 529.605 503.04 528.485 500.4C527.365 497.72 526.805 494.86 526.805 491.82C526.805 488.78 527.345 485.96 528.425 483.36C529.545 480.72 531.085 478.42 533.045 476.46C535.045 474.46 537.365 472.92 540.005 471.84C542.645 470.72 545.505 470.16 548.585 470.16C551.705 470.16 554.585 470.72 557.225 471.84C559.865 472.92 562.165 474.46 564.125 476.46C566.125 478.42 567.685 480.72 568.805 483.36C569.925 486 570.485 488.84 570.485 491.88C570.485 494.92 569.925 497.76 568.805 500.4C567.685 503.04 566.125 505.36 564.125 507.36C562.165 509.32 559.865 510.86 557.225 511.98C554.625 513.1 551.785 513.66 548.705 513.66ZM548.585 506.04C551.305 506.04 553.665 505.44 555.665 504.24C557.665 503.04 559.225 501.38 560.345 499.26C561.505 497.14 562.085 494.66 562.085 491.82C562.085 489.74 561.765 487.84 561.125 486.12C560.485 484.4 559.565 482.92 558.365 481.68C557.165 480.4 555.745 479.42 554.105 478.74C552.465 478.06 550.625 477.72 548.585 477.72C545.945 477.72 543.605 478.32 541.565 479.52C539.565 480.68 537.985 482.32 536.825 484.44C535.705 486.56 535.145 489.02 535.145 491.82C535.145 493.94 535.465 495.88 536.105 497.64C536.785 499.4 537.705 500.9 538.865 502.14C540.065 503.38 541.485 504.34 543.125 505.02C544.805 505.7 546.625 506.04 548.585 506.04Z" fill="#FF2700"/>
<path d="M318 390.5H270.5C256.499 390.5 249.498 390.5 244.15 387.775C239.446 385.379 235.622 381.554 233.225 376.85C230.5 371.503 230.5 364.501 230.5 350.5V255.5C230.5 241.499 230.5 234.498 233.225 229.15C235.622 224.446 239.446 220.622 244.15 218.225C249.498 215.5 256.499 215.5 270.5 215.5H415.5C429.501 215.5 436.502 215.5 441.85 218.225C446.554 220.622 450.379 224.446 452.775 229.15C455.5 234.498 455.5 241.499 455.5 255.5V259.25M305.5 271.75V259.25M305.5 271.75H330.501M305.5 271.75C291.535 271.75 280.53 273.327 280.501 288.406C280.479 299.66 280.501 303 305.501 303C330.501 303 330.501 305.569 330.501 317.584C330.501 326.613 330.5 334.25 305.5 334.25M305.5 334.25V346.75M305.5 334.25H280.501M368 278H405.5M368 403L393.312 397.937C395.519 397.496 396.622 397.275 397.651 396.871C398.565 396.514 399.434 396.049 400.237 395.488C401.145 394.855 401.94 394.06 403.532 392.468L455.5 340.5C462.404 333.596 462.404 322.404 455.5 315.5C448.596 308.596 437.404 308.596 430.5 315.5L378.532 367.468C376.94 369.06 376.145 369.855 375.512 370.762C374.951 371.566 374.486 372.435 374.129 373.349C373.725 374.377 373.504 375.481 373.062 377.688L368 403Z" stroke="#FF2700" stroke-width="20" stroke-linecap="round" stroke-linejoin="round"/>
<defs>
<filter id="filter0_d_4_8" x="0" y="0" width="706" height="706" filterUnits="userSpaceOnUse" color-interpolation-filters="sRGB">
<feFlood flood-opacity="0" result="BackgroundImageFix"/>
<feColorMatrix in="SourceAlpha" type="matrix" values="0 0 0 0 0 0 0 0 0 0 0 0 0 0 0 0 0 0 127 0" result="hardAlpha"/>
<feMorphology radius="3" operator="dilate" in="SourceAlpha" result="effect1_dropShadow_4_8"/>
<feOffset/>
<feGaussianBlur stdDeviation="25"/>
<feComposite in2="hardAlpha" operator="out"/>
<feColorMatrix type="matrix" values="0 0 0 0 1 0 0 0 0 0.152941 0 0 0 0 0 0 0 0 0.2 0"/>
<feBlend mode="normal" in2="BackgroundImageFix" result="effect1_dropShadow_4_8"/>
<feBlend mode="normal" in="SourceGraphic" in2="effect1_dropShadow_4_8" result="shape"/>
</filter>
</defs>
</svg>
