<svg width="156" height="159" viewBox="0 0 156 159" fill="none" xmlns="http://www.w3.org/2000/svg">
<path d="M23.1239 0.537842H113.32C114.108 0.741048 114.663 1.00378 114.985 1.32604C121.16 7.51254 127.386 13.7658 133.665 20.0857C134.309 20.7322 134.706 21.4589 134.706 22.361C134.71 36.8995 134.71 51.6104 134.706 66.4937C134.706 66.6394 134.75 66.7687 134.838 66.8816C140.142 73.688 145.464 80.5273 150.805 87.3993C152.425 89.4847 153.328 90.6948 153.515 91.0293C155.547 94.687 154.752 99.5948 151.369 102.19C145.909 106.38 140.391 110.597 134.817 114.841C134.753 114.891 134.721 114.956 134.721 115.038C134.69 121.022 134.692 126.992 134.727 132.948C134.738 134.824 134.597 136.21 134.305 137.105C133.117 140.732 129.844 143.161 125.999 143.164C118.952 143.17 111.857 143.171 104.714 143.167C104.597 143.167 104.495 143.204 104.406 143.278C102.575 144.809 100.501 145.548 98.184 145.495C98.0157 145.491 97.912 145.57 97.873 145.732C96.7215 150.529 92.3803 153.488 87.4633 152.179C87.3525 152.148 87.2734 152.186 87.2262 152.293C85.7319 155.721 83.1641 157.682 79.5229 158.177H78.0481C75.86 157.902 73.9788 157.016 72.4045 155.52C71.3433 154.508 70.2934 153.522 69.2548 152.564C69.1686 152.482 69.0772 152.476 68.9808 152.545C64.2146 155.997 57.4934 153.968 55.9632 148.207C55.9407 148.117 55.8822 148.068 55.7877 148.06C52.5344 147.743 50.0846 146.159 48.4384 143.306C48.3851 143.213 48.304 143.167 48.1952 143.167C40.5883 143.159 32.9106 143.165 25.1621 143.186C23.4276 143.192 22.1242 143.049 21.2519 142.758C17.6558 141.557 15.2542 138.272 15.2512 134.494C15.247 126.661 15.246 119.076 15.2481 111.738C15.248 111.682 15.2355 111.628 15.2115 111.579C15.1874 111.53 15.1525 111.487 15.1095 111.455C11.3369 108.604 7.76741 105.867 4.40116 103.246C1.50701 100.993 0.675713 96.8145 1.87956 93.4678C2.17718 92.6427 2.82683 91.5907 3.82849 90.3119C7.74894 85.3139 11.5247 80.4636 15.1557 75.7611C15.2156 75.6833 15.248 75.588 15.2481 75.4902C15.2501 67.6719 15.2501 59.7971 15.2481 51.8659C15.2481 47.5309 21.4428 47.5339 21.452 51.8474C21.4643 57.0241 21.4664 62.2192 21.4582 67.4328C21.4582 67.6052 21.5105 67.6226 21.6152 67.4851C23.7499 64.7203 25.9667 61.8743 28.2656 58.9474C30.6456 55.9147 34.6604 54.874 38.2566 56.0932C39.1351 56.3909 40.3974 57.176 42.0436 58.4486C47.0848 62.3423 51.9771 66.0832 56.7206 69.6711C59.2474 71.5821 60.5036 74.115 60.4892 77.2698C60.4892 77.3806 60.5446 77.4443 60.6554 77.4607L76.1268 79.8222C76.2315 79.8386 76.33 79.8181 76.4224 79.7606C82.1368 76.0167 88.5501 74.9822 95.3021 75.601C95.3276 75.6036 95.3534 75.6007 95.3777 75.5927C95.4021 75.5846 95.4245 75.5714 95.4436 75.554C95.4627 75.5367 95.4781 75.5154 95.4887 75.4917C95.4993 75.468 95.505 75.4423 95.5053 75.4163C95.5402 73.7804 96.0329 72.2215 96.9832 70.7395C97.482 69.9615 98.5421 68.9599 100.164 67.7345C105.472 63.7196 110.471 59.9069 115.161 56.2964C119.508 52.9528 125.201 54.0335 128.326 58.5379C128.433 58.6918 128.486 58.6754 128.486 58.4886V25.6215C128.486 25.6074 128.484 25.5933 128.478 25.5803C128.473 25.5672 128.465 25.5553 128.455 25.5453C128.445 25.5353 128.433 25.5274 128.42 25.522C128.407 25.5165 128.393 25.5138 128.379 25.5138C125.209 25.5261 122.038 25.5271 118.865 25.5168C113.634 25.5014 109.816 21.8314 109.81 16.625C109.806 13.3203 109.806 10.0598 109.81 6.8434C109.81 6.81563 109.799 6.78901 109.779 6.76938C109.76 6.74974 109.733 6.73871 109.705 6.73871C81.205 6.73871 52.6955 6.73666 24.1768 6.73256C22.5573 6.73256 21.4489 7.73012 21.4551 9.31574C21.4695 15.3524 21.4684 21.0555 21.452 26.4251C21.4428 29.0883 18.1822 30.4923 16.2487 28.6542C15.5755 28.0159 15.2399 27.2246 15.2419 26.2804C15.2501 20.3936 15.2532 14.7171 15.2512 9.25108C15.2512 4.70357 18.5671 1.09512 23.1239 0.537842ZM116.029 16.8652C116.057 18.2291 117.085 19.2913 118.468 19.2975C120.243 19.3077 122.067 19.3088 123.939 19.3006C123.953 19.3006 123.968 19.2963 123.98 19.2882C123.992 19.2801 124.002 19.2685 124.007 19.255C124.013 19.2414 124.014 19.2266 124.011 19.2122C124.009 19.1978 124.002 19.1847 123.991 19.1743L116.168 11.3016C116.071 11.2031 116.022 11.2226 116.02 11.3601C115.997 13.4291 116 15.2641 116.029 16.8652ZM127.292 109.447C127.723 110.002 128.356 110.364 129.053 110.455C129.751 110.545 130.455 110.357 131.014 109.931L147.363 97.455C147.643 97.2412 147.878 96.9742 148.054 96.6692C148.23 96.3643 148.344 96.0275 148.389 95.6782C148.434 95.329 148.41 94.9743 148.317 94.6345C148.225 94.2947 148.066 93.9767 147.849 93.6987L122.843 61.586C122.411 61.031 121.778 60.6688 121.081 60.5783C120.384 60.4877 119.679 60.6762 119.12 61.1026L102.768 73.5751C102.488 73.7889 102.253 74.0561 102.077 74.3613C101.9 74.6665 101.786 75.0037 101.741 75.3533C101.696 75.7029 101.72 76.058 101.813 76.3981C101.906 76.7381 102.065 77.0564 102.282 77.3344L127.292 109.447ZM8.12045 94.9241C7.90359 95.2027 7.74406 95.5214 7.65109 95.862C7.55811 96.2025 7.53353 96.5582 7.57876 96.9083C7.62399 97.2584 7.73814 97.596 7.91461 97.9018C8.09108 98.2075 8.32638 98.4753 8.60692 98.6896L24.9435 111.159C25.503 111.586 26.2084 111.775 26.9065 111.685C27.6046 111.595 28.239 111.234 28.672 110.679L53.6787 78.5691C53.896 78.2904 54.056 77.9715 54.1492 77.6306C54.2425 77.2897 54.2672 76.9338 54.2219 76.5833C54.1767 76.2328 54.0624 75.8948 53.8856 75.5888C53.7089 75.2828 53.4732 75.0148 53.1922 74.8005L36.8464 62.331C36.2866 61.9043 35.5809 61.7157 34.8828 61.8062C34.1847 61.8967 33.5505 62.259 33.1179 62.8144L8.12045 94.9241ZM81.4872 96.1926C82.5155 95.6784 83.9195 95.7893 84.8216 96.6083C92.954 103.971 101.566 111.68 110.657 119.737C110.759 119.827 110.865 119.831 110.974 119.749C114.856 116.713 117.652 114.21 119.792 110.097C119.826 110.029 119.82 109.965 119.773 109.906L98.2394 82.2422C98.1763 82.1611 98.0845 82.1081 97.9838 82.0944C93.2485 81.454 87.9436 81.3401 83.5931 83.0088C82.1851 83.5466 80.4999 84.4641 78.5376 85.7614C75.7707 87.5902 72.8889 89.4817 69.8921 91.4357C67.4813 93.0091 63.7559 96.4266 65.3415 99.4501C66.5423 101.738 69.6212 102.083 71.7979 101.005C75.2689 99.2869 78.4986 97.6828 81.4872 96.1926ZM83.1559 133.887C80.8129 131.523 83.0297 127.606 86.2625 128.669C86.7367 128.825 87.2498 129.182 87.802 129.74C90.8521 132.821 93.8017 135.793 96.6507 138.657C97.8669 139.879 100.219 139.282 100.912 137.77C101.426 136.652 101.146 135.491 100.296 134.657C96.4331 130.848 92.6122 127.055 88.8334 123.281C87.2293 121.68 87.8051 119.016 89.9018 118.21C91.1682 117.723 92.3382 118.015 93.4117 119.084C97.5148 123.173 101.565 127.188 105.561 131.129C106.382 131.937 107.294 132.45 108.298 132.665C110.33 133.102 111.559 131.415 110.924 129.518C110.532 128.353 109.794 127.287 108.711 126.323C100.059 118.648 91.2862 110.807 82.3924 102.8C82.3452 102.757 82.2928 102.749 82.2354 102.775C80.4147 103.629 78.5417 104.561 76.6164 105.571C74.4653 106.7 72.7021 107.382 71.3269 107.618C68.7139 108.066 66.257 107.68 63.956 106.461C59.2546 103.97 57.4195 98.4002 59.7472 93.5078C61.4498 89.9302 64.7873 87.1253 68.1864 85.1425C68.4142 85.0111 68.3988 84.9249 68.1402 84.8839L58.0353 83.329C57.9813 83.3207 57.9259 83.3272 57.875 83.3478C57.8241 83.3683 57.7795 83.4023 57.7459 83.446L34.6019 113.176C34.5178 113.285 34.5157 113.394 34.5958 113.505L36.0552 115.506C36.1291 115.607 36.2122 115.616 36.3046 115.534C38.431 113.656 40.7566 111.58 43.2813 109.306C45.0609 107.701 47.0221 106.334 49.3837 106.06C52.91 105.652 55.7128 106.93 57.7921 109.894C58.8307 111.378 59.3089 113.121 59.2268 115.125C59.2227 115.242 59.2771 115.32 59.39 115.359C63.0724 116.603 65.2173 119.145 65.8249 122.985C65.8434 123.1 65.9101 123.167 66.025 123.185C68.3814 123.555 70.2472 124.635 71.6224 126.427C73.6524 129.069 74.0065 131.952 72.6846 135.076C72.6436 135.174 72.6682 135.252 72.7585 135.31C77.2322 138.133 78.2082 143.534 74.5751 147.61C74.3862 147.823 74.1769 148.017 73.947 148.192C73.8362 148.278 73.8341 148.366 73.9408 148.457C74.5279 148.958 75.1067 149.493 75.6773 150.064C76.8196 151.206 77.8603 152.241 79.4243 151.874C80.7175 151.569 81.6011 150.156 81.7581 148.915C81.7705 148.816 81.7601 148.715 81.7275 148.62C81.6949 148.526 81.6411 148.44 81.5703 148.37C80.7801 147.588 79.9939 146.847 79.2119 146.148C75.5973 142.912 80.0524 138.303 83.2237 141.369C84.5886 142.687 85.9115 143.926 87.1924 145.085C88.4547 146.224 90.496 147.108 91.5336 145.088C92.0919 144.003 92.1329 143.166 91.6567 142.579C91.1949 142.006 90.7187 141.475 90.2281 140.984C88.0257 138.786 85.6683 136.42 83.1559 133.887ZM52.7981 113.678C51.9299 111.96 50.0148 111.689 48.537 112.991C44.91 116.179 41.318 119.369 37.7609 122.563C36.3631 123.816 37.1451 125.778 38.4659 126.729C39.3065 127.336 40.1439 127.123 40.8459 126.486C44.9162 122.795 48.7207 119.348 52.2593 116.144C53.0763 115.405 53.2559 114.583 52.7981 113.678ZM128.314 116.587C126.873 116.418 125.488 115.901 124.311 115.057C124.291 115.042 124.268 115.032 124.243 115.026C124.218 115.021 124.193 115.021 124.168 115.026C124.143 115.031 124.119 115.042 124.098 115.057C124.077 115.071 124.06 115.09 124.047 115.112C122.565 117.549 120.645 119.757 118.289 121.738C117.314 122.559 116.33 123.383 115.336 124.21C115.238 124.293 115.225 124.388 115.296 124.497C118.194 128.853 118.083 133.586 114.219 137.136C114.102 137.242 114.123 137.294 114.283 137.29C117.873 137.177 121.729 137.071 125.851 136.972C127.399 136.935 128.499 135.969 128.496 134.374C128.483 128.196 128.481 122.332 128.489 116.784C128.49 116.735 128.472 116.688 128.44 116.652C128.407 116.616 128.362 116.592 128.314 116.587ZM39.0294 133.287C36.3908 133.093 34.0231 131.618 32.5637 129.466C30.5624 126.514 30.272 123.489 31.6924 120.39C31.754 120.254 31.7406 120.127 31.6524 120.008L29.8204 117.492C29.7465 117.394 29.6511 117.363 29.5341 117.4C26.6892 118.32 24.0332 117.981 21.5659 116.384C21.5553 116.377 21.5432 116.374 21.5308 116.374C21.5184 116.373 21.5061 116.376 21.4952 116.382C21.4843 116.388 21.4751 116.397 21.4686 116.407C21.4621 116.418 21.4585 116.43 21.4582 116.442C21.4664 122.387 21.4664 128.37 21.4582 134.392C21.4582 135.956 22.5543 136.957 24.0568 136.954C29.7527 136.944 35.2967 136.942 40.6889 136.948C40.8449 136.948 40.8777 136.884 40.7874 136.757C40.0587 135.741 39.5579 134.656 39.2849 133.503C39.2521 133.369 39.1669 133.297 39.0294 133.287ZM59.3962 122.868C58.4017 120.91 56.3758 120.814 54.8179 122.218C51.7718 124.959 48.8079 127.641 45.9261 130.267C45.1584 130.967 45.0527 131.813 45.6089 132.807C46.3232 134.088 47.8134 135.073 49.1527 133.894C52.0674 131.326 55.3074 128.464 58.8728 125.31C59.6856 124.591 59.8601 123.777 59.3962 122.868ZM66.5423 133.087C67.1119 132.567 67.4105 131.738 67.1242 131.002C66.1543 128.512 63.9283 129.167 62.3673 130.528C59.7154 132.844 57.1517 135.107 54.6763 137.317C53.2477 138.596 53.2169 139.872 54.5839 141.144C55.5876 142.08 56.6036 142.085 57.632 141.16C60.6144 138.471 63.5845 135.78 66.5423 133.087ZM62.3334 147.33C63.4388 148.666 64.9782 147.921 65.9942 147C67.3058 145.812 68.6267 144.623 69.9568 143.435C70.6064 142.853 70.8281 142.056 70.2585 141.289C69.2332 139.897 67.6322 140.492 66.5792 141.443C65.1855 142.705 63.8257 143.933 62.4997 145.125C61.8254 145.732 61.73 146.597 62.3334 147.33Z" fill="white" stroke="white" stroke-width="1.01295"/>
<path d="M53.0815 22.2007C54.6559 22.5537 56.0229 23.1777 57.1826 24.0726C58.9591 25.4427 59.7381 27.6318 58.0539 29.3806C57.0287 30.4428 55.4584 30.3997 54.3531 29.4761C52.6043 28.0198 47.8536 26.8067 47.0777 29.8702C46.3542 32.7335 50.172 33.0968 51.9454 33.4848C54.0514 33.9425 55.7448 34.5121 57.0256 35.1936C60.3261 36.9454 60.9173 41.3482 60.0398 44.7319C59.1993 47.9709 56.2251 50.2555 53.0384 51.0529C52.9902 51.0653 52.9475 51.0937 52.9174 51.1333C52.8872 51.173 52.8713 51.2217 52.8722 51.2715C52.8906 52.3327 52.866 53.4154 52.7983 54.5197C52.669 56.7057 50.7477 58.1005 48.6818 57.1522C47.2101 56.4779 47.013 55.271 47.0315 53.6976C47.0397 52.8971 47.0387 52.0956 47.0284 51.293C47.0264 51.1801 46.971 51.1104 46.8622 51.0837C44.9553 50.6157 43.2537 49.7054 41.7574 48.3527C40.8707 47.5491 39.8208 46.139 39.8054 44.8643C39.7807 42.6876 41.9883 40.7694 44.1066 41.8901C44.9902 42.3581 45.5321 43.2879 46.2741 43.9407C47.5057 45.0183 49.5593 45.1691 51.0895 44.8736C52.7008 44.5616 53.4787 43.5732 53.4233 41.9086C53.3802 40.6278 51.5113 40.0243 50.4214 39.7411C49.0564 39.3901 47.8331 39.0473 46.7513 38.7127C45.2324 38.2427 44.0871 37.7193 43.3153 37.1425C41.041 35.4388 39.9881 33.1061 40.1564 30.1442C40.3596 26.587 42.1248 24.0583 45.4521 22.5578C45.8923 22.3577 46.4588 22.2561 46.9392 22.1298C47.0479 22.1011 47.1023 22.0303 47.1023 21.9174C47.0982 20.9157 47.0972 19.8761 47.0993 18.7985C47.1054 14.9407 52.9091 14.8975 52.8814 19.0079C52.8752 19.9828 52.8742 20.9619 52.8783 21.9451C52.8783 22.0847 52.9461 22.1699 53.0815 22.2007Z" fill="white" stroke="white" stroke-width="1.01295"/>
<path d="M107.63 29.4942L72.2294 29.556C70.5443 29.5589 69.1806 30.9273 69.1835 32.6124L69.1837 32.7171C69.1867 34.4022 70.5551 35.7659 72.2402 35.763L107.641 35.7012C109.326 35.6982 110.69 34.3298 110.687 32.6447L110.687 32.54C110.684 30.8549 109.315 29.4912 107.63 29.4942Z" fill="white" stroke="white" stroke-width="1.01295"/>
<path d="M18.3515 41.767C20.0706 41.767 21.4643 40.3734 21.4643 38.6543C21.4643 36.9351 20.0706 35.5415 18.3515 35.5415C16.6324 35.5415 15.2388 36.9351 15.2388 38.6543C15.2388 40.3734 16.6324 41.767 18.3515 41.767Z" fill="white" stroke="white" stroke-width="1.01295"/>
<path d="M107.633 42.7524L72.2502 42.6906C70.5617 42.6877 69.1905 44.0541 69.1875 45.7426L69.1874 45.8473C69.1844 47.5358 70.5508 48.907 72.2393 48.91L107.622 48.9717C109.31 48.9747 110.682 47.6083 110.684 45.9197L110.685 45.8151C110.688 44.1265 109.321 42.7553 107.633 42.7524Z" fill="white" stroke="white" stroke-width="1.01295"/>
</svg>
