<svg width="706" height="706" viewBox="0 0 706 706" fill="none" xmlns="http://www.w3.org/2000/svg">
<g filter="url(#filter0_d_4_8)">
<rect x="53" y="53" width="600" height="600" rx="81.3841" fill="white"/>
</g>
<path d="M158.88 541.6C155.8 541.6 152.94 541.06 150.3 539.98C147.66 538.86 145.34 537.32 143.34 535.36C141.38 533.36 139.86 531.04 138.78 528.4C137.74 525.76 137.22 522.92 137.22 519.88C137.22 516.84 137.74 514 138.78 511.36C139.86 508.72 141.38 506.42 143.34 504.46C145.34 502.5 147.64 500.96 150.24 499.84C152.88 498.72 155.76 498.16 158.88 498.16C162.24 498.16 165.2 498.72 167.76 499.84C170.32 500.92 172.58 502.42 174.54 504.34L169.02 509.86C167.86 508.58 166.44 507.58 164.76 506.86C163.08 506.14 161.12 505.78 158.88 505.78C156.92 505.78 155.12 506.12 153.48 506.8C151.88 507.44 150.48 508.4 149.28 509.68C148.08 510.92 147.16 512.42 146.52 514.18C145.88 515.9 145.56 517.8 145.56 519.88C145.56 522 145.88 523.92 146.52 525.64C147.16 527.36 148.08 528.86 149.28 530.14C150.48 531.38 151.88 532.34 153.48 533.02C155.12 533.7 156.92 534.04 158.88 534.04C161.24 534.04 163.26 533.68 164.94 532.96C166.66 532.24 168.1 531.22 169.26 529.9L174.78 535.42C172.82 537.38 170.54 538.9 167.94 539.98C165.34 541.06 162.32 541.6 158.88 541.6ZM198.494 541.66C195.414 541.66 192.534 541.1 189.854 539.98C187.214 538.86 184.894 537.32 182.894 535.36C180.934 533.36 179.394 531.04 178.274 528.4C177.154 525.72 176.594 522.86 176.594 519.82C176.594 516.78 177.134 513.96 178.214 511.36C179.334 508.72 180.874 506.42 182.834 504.46C184.834 502.46 187.154 500.92 189.794 499.84C192.434 498.72 195.294 498.16 198.374 498.16C201.494 498.16 204.374 498.72 207.014 499.84C209.654 500.92 211.954 502.46 213.914 504.46C215.914 506.42 217.474 508.72 218.594 511.36C219.714 514 220.274 516.84 220.274 519.88C220.274 522.92 219.714 525.76 218.594 528.4C217.474 531.04 215.914 533.36 213.914 535.36C211.954 537.32 209.654 538.86 207.014 539.98C204.414 541.1 201.574 541.66 198.494 541.66ZM198.374 534.04C201.094 534.04 203.454 533.44 205.454 532.24C207.454 531.04 209.014 529.38 210.134 527.26C211.294 525.14 211.874 522.66 211.874 519.82C211.874 517.74 211.554 515.84 210.914 514.12C210.274 512.4 209.354 510.92 208.154 509.68C206.954 508.4 205.534 507.42 203.894 506.74C202.254 506.06 200.414 505.72 198.374 505.72C195.734 505.72 193.394 506.32 191.354 507.52C189.354 508.68 187.774 510.32 186.614 512.44C185.494 514.56 184.934 517.02 184.934 519.82C184.934 521.94 185.254 523.88 185.894 525.64C186.574 527.4 187.494 528.9 188.654 530.14C189.854 531.38 191.274 532.34 192.914 533.02C194.594 533.7 196.414 534.04 198.374 534.04ZM226.742 541V498.82H232.442L234.902 506.98V541H226.742ZM255.902 541L230.882 508.6L232.442 498.82L257.462 531.22L255.902 541ZM255.902 541L253.562 533.08V498.82H261.782V541H255.902ZM281.755 541.6C278.355 541.6 275.435 541.02 272.995 539.86C270.595 538.7 268.415 536.96 266.455 534.64L271.855 529.24C273.095 530.88 274.535 532.16 276.175 533.08C277.815 533.96 279.815 534.4 282.175 534.4C284.295 534.4 285.975 533.98 287.215 533.14C288.495 532.3 289.135 531.14 289.135 529.66C289.135 528.38 288.775 527.34 288.055 526.54C287.335 525.74 286.375 525.06 285.175 524.5C284.015 523.94 282.715 523.44 281.275 523C279.875 522.52 278.455 521.98 277.015 521.38C275.615 520.78 274.315 520.04 273.115 519.16C271.955 518.24 271.015 517.08 270.295 515.68C269.575 514.24 269.215 512.44 269.215 510.28C269.215 507.72 269.835 505.54 271.075 503.74C272.315 501.94 274.015 500.56 276.175 499.6C278.335 498.64 280.775 498.16 283.495 498.16C286.375 498.16 288.975 498.7 291.295 499.78C293.615 500.86 295.515 502.26 296.995 503.98L291.595 509.38C290.355 508.02 289.075 507.02 287.755 506.38C286.475 505.74 285.015 505.42 283.375 505.42C281.495 505.42 280.015 505.78 278.935 506.5C277.855 507.22 277.315 508.26 277.315 509.62C277.315 510.78 277.675 511.72 278.395 512.44C279.115 513.16 280.055 513.78 281.215 514.3C282.415 514.82 283.715 515.32 285.115 515.8C286.555 516.28 287.975 516.82 289.375 517.42C290.815 518.02 292.115 518.8 293.275 519.76C294.475 520.72 295.435 521.96 296.155 523.48C296.875 524.96 297.235 526.8 297.235 529C297.235 532.92 295.855 536 293.095 538.24C290.335 540.48 286.555 541.6 281.755 541.6ZM312.416 541V499.72H320.636V541H312.416ZM298.976 506.08V498.82H334.076V506.08H298.976ZM345.711 523.36V517H355.491C357.491 517 359.031 516.5 360.111 515.5C361.231 514.46 361.791 513.04 361.791 511.24C361.791 509.6 361.231 508.24 360.111 507.16C359.031 506.04 357.491 505.48 355.491 505.48H345.711V498.82H356.211C358.931 498.82 361.311 499.36 363.351 500.44C365.431 501.48 367.031 502.92 368.151 504.76C369.311 506.6 369.891 508.72 369.891 511.12C369.891 513.6 369.311 515.76 368.151 517.6C367.031 519.4 365.431 520.82 363.351 521.86C361.271 522.86 358.851 523.36 356.091 523.36H345.711ZM339.711 541V498.82H347.871V541H339.711ZM362.751 541L348.831 522.76L356.331 520.42L372.651 541H362.751ZM393.772 541.6C390.452 541.6 387.492 540.88 384.892 539.44C382.332 537.96 380.312 535.94 378.832 533.38C377.352 530.82 376.612 527.92 376.612 524.68V498.82H384.772V524.92C384.772 526.8 385.152 528.42 385.912 529.78C386.712 531.14 387.792 532.2 389.152 532.96C390.552 533.68 392.092 534.04 393.772 534.04C395.492 534.04 397.012 533.68 398.332 532.96C399.652 532.2 400.692 531.14 401.452 529.78C402.252 528.42 402.652 526.82 402.652 524.98V498.82H410.872V524.74C410.872 527.98 410.132 530.88 408.652 533.44C407.172 535.96 405.152 537.96 402.592 539.44C400.072 540.88 397.132 541.6 393.772 541.6ZM438.489 541.6C435.409 541.6 432.549 541.06 429.909 539.98C427.269 538.86 424.949 537.32 422.949 535.36C420.989 533.36 419.469 531.04 418.389 528.4C417.349 525.76 416.829 522.92 416.829 519.88C416.829 516.84 417.349 514 418.389 511.36C419.469 508.72 420.989 506.42 422.949 504.46C424.949 502.5 427.249 500.96 429.849 499.84C432.489 498.72 435.369 498.16 438.489 498.16C441.849 498.16 444.809 498.72 447.369 499.84C449.929 500.92 452.189 502.42 454.149 504.34L448.629 509.86C447.469 508.58 446.049 507.58 444.369 506.86C442.689 506.14 440.729 505.78 438.489 505.78C436.529 505.78 434.729 506.12 433.089 506.8C431.489 507.44 430.089 508.4 428.889 509.68C427.689 510.92 426.769 512.42 426.129 514.18C425.489 515.9 425.169 517.8 425.169 519.88C425.169 522 425.489 523.92 426.129 525.64C426.769 527.36 427.689 528.86 428.889 530.14C430.089 531.38 431.489 532.34 433.089 533.02C434.729 533.7 436.529 534.04 438.489 534.04C440.849 534.04 442.869 533.68 444.549 532.96C446.269 532.24 447.709 531.22 448.869 529.9L454.389 535.42C452.429 537.38 450.149 538.9 447.549 539.98C444.949 541.06 441.929 541.6 438.489 541.6ZM435.909 553.72C434.389 553.72 433.069 553.54 431.949 553.18C430.829 552.82 429.709 552.3 428.589 551.62L431.409 548.08C431.889 548.44 432.429 548.74 433.029 548.98C433.669 549.22 434.409 549.34 435.249 549.34C436.169 549.34 436.829 549.2 437.229 548.92C437.669 548.68 437.889 548.38 437.889 548.02C437.889 547.58 437.669 547.2 437.229 546.88C436.829 546.6 436.169 546.46 435.249 546.46H432.729L434.709 540.22H439.689L438.189 544.54L435.669 542.56C438.229 542.52 440.249 543.02 441.729 544.06C443.249 545.14 444.009 546.5 444.009 548.14C444.009 549.74 443.269 551.06 441.789 552.1C440.309 553.18 438.349 553.72 435.909 553.72ZM478.103 541.66C475.023 541.66 472.143 541.1 469.463 539.98C466.823 538.86 464.503 537.32 462.503 535.36C460.543 533.36 459.003 531.04 457.883 528.4C456.763 525.72 456.203 522.86 456.203 519.82C456.203 516.78 456.743 513.96 457.823 511.36C458.943 508.72 460.483 506.42 462.443 504.46C464.443 502.46 466.763 500.92 469.403 499.84C472.043 498.72 474.903 498.16 477.983 498.16C481.103 498.16 483.983 498.72 486.623 499.84C489.263 500.92 491.563 502.46 493.523 504.46C495.523 506.42 497.083 508.72 498.203 511.36C499.323 514 499.883 516.84 499.883 519.88C499.883 522.92 499.323 525.76 498.203 528.4C497.083 531.04 495.523 533.36 493.523 535.36C491.563 537.32 489.263 538.86 486.623 539.98C484.023 541.1 481.183 541.66 478.103 541.66ZM477.983 534.04C480.703 534.04 483.063 533.44 485.063 532.24C487.063 531.04 488.623 529.38 489.743 527.26C490.903 525.14 491.483 522.66 491.483 519.82C491.483 517.74 491.163 515.84 490.523 514.12C489.883 512.4 488.963 510.92 487.763 509.68C486.563 508.4 485.143 507.42 483.503 506.74C481.863 506.06 480.023 505.72 477.983 505.72C475.343 505.72 473.003 506.32 470.963 507.52C468.963 508.68 467.383 510.32 466.223 512.44C465.103 514.56 464.543 517.02 464.543 519.82C464.543 521.94 464.863 523.88 465.503 525.64C466.183 527.4 467.103 528.9 468.263 530.14C469.463 531.38 470.883 532.34 472.523 533.02C474.203 533.7 476.023 534.04 477.983 534.04ZM482.423 495.1C481.103 495.1 479.983 494.86 479.063 494.38C478.143 493.9 477.283 493.44 476.483 493C475.683 492.56 474.823 492.34 473.903 492.34C472.943 492.34 472.143 492.52 471.503 492.88C470.903 493.24 470.323 493.8 469.763 494.56L465.803 490.6C466.963 489.08 468.143 487.92 469.343 487.12C470.583 486.32 472.023 485.92 473.663 485.92C474.983 485.92 476.103 486.16 477.023 486.64C477.943 487.08 478.803 487.54 479.603 488.02C480.403 488.46 481.263 488.68 482.183 488.68C483.183 488.68 483.983 488.5 484.583 488.14C485.223 487.74 485.803 487.18 486.323 486.46L490.283 490.36C489.123 491.88 487.923 493.06 486.683 493.9C485.483 494.7 484.063 495.1 482.423 495.1ZM506.351 541V498.82H514.511V541H506.351ZM512.351 541V533.8H535.691V541H512.351ZM512.351 522.94V515.98H533.591V522.94H512.351ZM512.351 506.02V498.82H535.391V506.02H512.351ZM553.63 541.6C550.23 541.6 547.31 541.02 544.87 539.86C542.47 538.7 540.29 536.96 538.33 534.64L543.73 529.24C544.97 530.88 546.41 532.16 548.05 533.08C549.69 533.96 551.69 534.4 554.05 534.4C556.17 534.4 557.85 533.98 559.09 533.14C560.37 532.3 561.01 531.14 561.01 529.66C561.01 528.38 560.65 527.34 559.93 526.54C559.21 525.74 558.25 525.06 557.05 524.5C555.89 523.94 554.59 523.44 553.15 523C551.75 522.52 550.33 521.98 548.89 521.38C547.49 520.78 546.19 520.04 544.99 519.16C543.83 518.24 542.89 517.08 542.17 515.68C541.45 514.24 541.09 512.44 541.09 510.28C541.09 507.72 541.71 505.54 542.95 503.74C544.19 501.94 545.89 500.56 548.05 499.6C550.21 498.64 552.65 498.16 555.37 498.16C558.25 498.16 560.85 498.7 563.17 499.78C565.49 500.86 567.39 502.26 568.87 503.98L563.47 509.38C562.23 508.02 560.95 507.02 559.63 506.38C558.35 505.74 556.89 505.42 555.25 505.42C553.37 505.42 551.89 505.78 550.81 506.5C549.73 507.22 549.19 508.26 549.19 509.62C549.19 510.78 549.55 511.72 550.27 512.44C550.99 513.16 551.93 513.78 553.09 514.3C554.29 514.82 555.59 515.32 556.99 515.8C558.43 516.28 559.85 516.82 561.25 517.42C562.69 518.02 563.99 518.8 565.15 519.76C566.35 520.72 567.31 521.96 568.03 523.48C568.75 524.96 569.11 526.8 569.11 529C569.11 532.92 567.73 536 564.97 538.24C562.21 540.48 558.43 541.6 553.63 541.6Z" fill="#FF2700"/>
<path d="M495.713 429.323C497.221 427.738 498.056 425.58 498.012 423.352C497.968 421.124 497.064 419.008 495.496 417.474L339.591 262.144L312.864 290.234L464.854 449.68C466.349 451.28 468.416 452.194 470.568 452.197C472.72 452.21 474.792 451.322 476.3 449.727L495.713 429.323Z" fill="#FF2700"/>
<path d="M390.614 158.742C370.357 150.72 315.735 147.126 287.873 176.41C273.083 191.954 243.786 222.756 243.786 222.756C236.082 230.843 243.346 238.752 237.66 244.73C231.973 250.707 222.764 244.841 217.649 250.226L198.881 269.952C196.21 272.759 196.244 277.281 198.956 280.038L225.508 307.134C228.221 309.901 232.588 309.878 235.258 307.061L254.027 287.335C259.151 281.96 253.34 272.513 259.027 266.536C266.703 258.458 275.154 259.76 280.053 264.768L289.879 274.782L300.447 277.575L327.174 249.476L323.991 238.919C315.328 230.082 314.034 219.786 319.375 214.172C353.803 178.895 380.018 177.951 392.869 172.518C401.064 169.054 398.502 160.607 390.614 158.742ZM319.321 214.23C319.275 214.268 319.257 214.287 319.321 214.23Z" fill="#FF2700"/>
<defs>
<filter id="filter0_d_4_8" x="0" y="0" width="706" height="706" filterUnits="userSpaceOnUse" color-interpolation-filters="sRGB">
<feFlood flood-opacity="0" result="BackgroundImageFix"/>
<feColorMatrix in="SourceAlpha" type="matrix" values="0 0 0 0 0 0 0 0 0 0 0 0 0 0 0 0 0 0 127 0" result="hardAlpha"/>
<feMorphology radius="3" operator="dilate" in="SourceAlpha" result="effect1_dropShadow_4_8"/>
<feOffset/>
<feGaussianBlur stdDeviation="25"/>
<feComposite in2="hardAlpha" operator="out"/>
<feColorMatrix type="matrix" values="0 0 0 0 1 0 0 0 0 0.152941 0 0 0 0 0 0 0 0 0.2 0"/>
<feBlend mode="normal" in2="BackgroundImageFix" result="effect1_dropShadow_4_8"/>
<feBlend mode="normal" in="SourceGraphic" in2="effect1_dropShadow_4_8" result="shape"/>
</filter>
</defs>
</svg>
