<svg width="706" height="706" viewBox="0 0 706 706" fill="none" xmlns="http://www.w3.org/2000/svg">
<g filter="url(#filter0_d_0_734)">
<rect x="53" y="53" width="600" height="600" rx="81.3841" fill="white"/>
</g>
<path d="M155.044 502.533H140.744C139.964 502.533 139.496 503.001 139.496 503.781V535.085C139.496 535.865 139.964 536.333 140.744 536.333H144.02C144.8 536.333 145.268 535.865 145.268 535.085V524.217H155.044C160.14 524.217 165.132 520.317 165.132 513.401C165.132 506.433 160.14 502.533 155.044 502.533ZM154.056 518.601H145.268V508.149H154.16C157.02 508.149 159.36 510.281 159.36 513.401C159.36 516.469 156.968 518.601 154.056 518.601ZM192.633 506.589V503.781C192.633 503.001 192.165 502.533 191.385 502.533H171.365C170.585 502.533 170.117 503.001 170.117 503.781V535.085C170.117 535.865 170.585 536.333 171.365 536.333H191.385C192.165 536.333 192.633 535.865 192.633 535.085V532.277C192.633 531.497 192.165 531.029 191.385 531.029H175.889V522.085H190.293C191.073 522.085 191.541 521.617 191.541 520.837V518.029C191.541 517.249 191.073 516.781 190.293 516.781H175.889V507.837H191.385C192.165 507.837 192.633 507.369 192.633 506.589ZM224.142 534.825L217.018 523.853C221.074 522.761 224.454 519.069 224.454 513.401C224.454 506.433 219.462 502.533 214.366 502.533H199.65C198.87 502.533 198.402 503.001 198.402 503.781V535.085C198.402 535.865 198.87 536.333 199.65 536.333H202.926C203.706 536.333 204.174 535.865 204.174 535.085V524.217H210.57L217.902 535.501C218.266 536.073 218.734 536.333 219.41 536.333H223.31C224.298 536.333 224.662 535.657 224.142 534.825ZM204.174 508.149H213.482C216.394 508.149 218.682 510.281 218.682 513.401C218.682 516.469 216.394 518.601 213.482 518.601H204.174V508.149ZM228.756 529.885C230.732 533.681 235.568 536.957 242.588 536.957C250.7 536.957 255.9 533.369 255.9 526.453C255.9 519.381 247.112 517.405 244.408 516.521C241.496 515.637 236.192 514.753 236.192 511.529C236.192 509.137 238.168 507.733 241.912 507.733C245.656 507.733 248.776 509.345 250.232 510.957C250.752 511.581 251.272 511.737 251.948 511.321L254.548 509.657C255.172 509.241 255.432 508.669 255.068 507.993C253.196 504.769 248.36 501.909 242.588 501.909C235.568 501.909 229.588 504.873 229.588 511.789C229.588 519.069 238.116 520.629 240.976 521.513C243.68 522.397 249.452 523.385 249.452 526.713C249.452 529.417 247.84 531.133 243.212 531.133C238.844 531.133 235.256 528.793 233.644 526.661C233.124 525.985 232.604 525.829 231.928 526.297L229.224 528.169C228.6 528.637 228.392 529.209 228.756 529.885ZM277.144 536.749C287.18 536.749 294.044 529.469 294.044 519.433C294.044 509.397 287.18 502.117 277.144 502.117C267.108 502.117 260.14 509.397 260.14 519.433C260.14 529.469 267.108 536.749 277.144 536.749ZM277.144 530.977C270.436 530.977 265.912 526.089 265.912 519.433C265.912 512.777 270.436 507.889 277.144 507.889C283.852 507.889 288.22 512.777 288.22 519.433C288.22 526.089 283.852 530.977 277.144 530.977ZM320.418 503.781V526.297L305.39 503.365C305.026 502.793 304.558 502.533 303.882 502.533H300.502C299.722 502.533 299.254 503.001 299.254 503.781V535.085C299.254 535.865 299.722 536.333 300.502 536.333H303.778C304.558 536.333 305.026 535.865 305.026 535.085V512.569L320.054 535.501C320.418 536.073 320.886 536.333 321.562 536.333H324.942C325.722 536.333 326.19 535.865 326.19 535.085V503.781C326.19 503.001 325.722 502.533 324.942 502.533H321.666C320.886 502.533 320.418 503.001 320.418 503.781ZM357.483 536.333H361.019C361.955 536.333 362.371 535.709 362.007 534.877L349.215 503.521C348.955 502.897 348.435 502.533 347.759 502.533H345.419C344.743 502.533 344.223 502.897 343.963 503.521L331.223 534.877C330.859 535.709 331.275 536.333 332.211 536.333H335.747C336.423 536.333 336.891 535.969 337.151 535.345L339.387 529.833H353.843L356.079 535.345C356.339 535.969 356.807 536.333 357.483 536.333ZM341.467 524.529L346.615 511.633L351.763 524.529H341.467ZM372.26 531.029V503.781C372.26 503.001 371.792 502.533 371.012 502.533H367.736C366.956 502.533 366.488 503.001 366.488 503.781V535.085C366.488 535.865 366.956 536.333 367.736 536.333H387.652C388.432 536.333 388.9 535.865 388.9 535.085V532.277C388.9 531.497 388.432 531.029 387.652 531.029H372.26ZM399.682 535.085V503.781C399.682 503.001 399.214 502.533 398.434 502.533H395.158C394.378 502.533 393.91 503.001 393.91 503.781V535.085C393.91 535.865 394.378 536.333 395.158 536.333H398.434C399.214 536.333 399.682 535.865 399.682 535.085ZM428.833 506.589V503.781C428.833 503.001 428.365 502.533 427.585 502.533H406.681C405.901 502.533 405.433 503.001 405.433 503.781V506.641C405.433 507.421 405.901 507.889 406.681 507.889H421.605L405.589 530.769C405.225 531.237 405.121 531.705 405.121 532.277V535.085C405.121 535.865 405.589 536.333 406.369 536.333H427.221C428.001 536.333 428.469 535.865 428.469 535.085V532.277C428.469 531.497 428.001 531.029 427.221 531.029L412.141 530.977L428.365 508.097C428.729 507.629 428.833 507.161 428.833 506.589ZM459.045 536.333H462.581C463.517 536.333 463.933 535.709 463.569 534.877L450.777 503.521C450.517 502.897 449.997 502.533 449.321 502.533H446.981C446.305 502.533 445.785 502.897 445.525 503.521L432.785 534.877C432.421 535.709 432.837 536.333 433.773 536.333H437.309C437.985 536.333 438.453 535.969 438.713 535.345L440.949 529.833H455.405L457.641 535.345C457.901 535.969 458.369 536.333 459.045 536.333ZM443.029 524.529L448.177 511.633L453.325 524.529H443.029ZM495.191 529.157L492.487 527.077C491.811 526.557 491.291 526.713 490.719 527.285C488.847 529.313 485.987 530.977 482.503 530.977C475.795 530.977 471.271 526.089 471.271 519.433C471.271 512.777 475.795 507.889 482.503 507.889C485.987 507.889 488.899 509.397 490.719 511.425C491.291 511.997 491.863 512.101 492.487 511.633L495.191 509.657C495.815 509.189 495.919 508.565 495.451 507.941C492.487 504.301 488.015 502.117 482.503 502.117C472.467 502.117 465.499 509.397 465.499 519.433C465.499 528.845 471.635 535.813 480.631 536.645L480.423 536.957L479.851 537.893C479.539 538.413 479.435 538.881 479.435 539.453V539.817C479.435 540.545 479.903 540.805 480.735 540.753C480.995 540.701 481.255 540.701 481.411 540.701C482.763 540.701 483.595 541.065 483.595 541.741C483.595 542.469 482.659 542.781 481.619 542.781C481.151 542.781 480.475 542.729 479.903 542.625C479.019 542.469 478.551 542.677 478.551 543.561V543.977C478.551 544.705 478.863 545.225 479.591 545.381C480.319 545.537 481.099 545.589 481.619 545.589C484.531 545.589 486.507 544.393 486.507 541.741C486.507 539.869 485.207 538.673 482.919 538.309L483.335 537.633C483.543 537.269 483.595 536.957 483.491 536.749C488.587 536.489 492.695 534.357 495.451 530.925C495.971 530.301 495.867 529.677 495.191 529.157ZM507.941 499.621H508.825C509.553 499.621 509.917 499.205 510.125 498.477C510.385 497.801 510.853 497.229 511.737 497.229C512.569 497.229 513.141 497.749 513.817 498.477C514.545 499.309 515.637 500.297 517.665 500.297C520.681 500.297 522.293 498.425 522.761 495.877C522.865 495.045 522.397 494.577 521.565 494.577H520.681C519.953 494.577 519.589 494.993 519.381 495.721C519.121 496.449 518.653 496.969 517.665 496.969C516.677 496.969 516.001 496.293 515.429 495.669C514.649 494.785 513.453 493.901 511.633 493.901C508.877 493.901 507.213 495.773 506.745 498.321C506.641 499.153 507.109 499.621 507.941 499.621ZM525.569 536.333H529.105C530.041 536.333 530.457 535.709 530.093 534.877L517.301 503.521C517.041 502.897 516.521 502.533 515.845 502.533H513.505C512.829 502.533 512.309 502.897 512.049 503.521L499.309 534.877C498.945 535.709 499.361 536.333 500.297 536.333H503.833C504.509 536.333 504.977 535.969 505.237 535.345L507.473 529.833H521.929L524.165 535.345C524.425 535.969 524.893 536.333 525.569 536.333ZM509.553 524.529L514.701 511.633L519.849 524.529H509.553ZM549.179 536.749C559.215 536.749 566.079 529.469 566.079 519.433C566.079 509.397 559.215 502.117 549.179 502.117C539.143 502.117 532.175 509.397 532.175 519.433C532.175 529.469 539.143 536.749 549.179 536.749ZM549.179 530.977C542.471 530.977 537.947 526.089 537.947 519.433C537.947 512.777 542.471 507.889 549.179 507.889C555.887 507.889 560.255 512.777 560.255 519.433C560.255 526.089 555.887 530.977 549.179 530.977Z" fill="#FF2700"/>
<path d="M353.019 323.547C395.42 323.547 429.792 289.174 429.792 246.774C429.792 204.373 395.42 170 353.019 170C310.618 170 276.245 204.373 276.245 246.774C276.245 289.174 310.618 323.547 353.019 323.547ZM353.019 323.547C276.245 323.547 229 382.604 229 441.66L476.211 442M353.019 323.547C429.792 323.547 477.038 382.604 477.038 441.66" stroke="#FF2700" stroke-width="27.166" stroke-linecap="round" stroke-linejoin="round"/>
<defs>
<filter id="filter0_d_0_734" x="0" y="0" width="706" height="706" filterUnits="userSpaceOnUse" color-interpolation-filters="sRGB">
<feFlood flood-opacity="0" result="BackgroundImageFix"/>
<feColorMatrix in="SourceAlpha" type="matrix" values="0 0 0 0 0 0 0 0 0 0 0 0 0 0 0 0 0 0 127 0" result="hardAlpha"/>
<feMorphology radius="3" operator="dilate" in="SourceAlpha" result="effect1_dropShadow_0_734"/>
<feOffset/>
<feGaussianBlur stdDeviation="25"/>
<feComposite in2="hardAlpha" operator="out"/>
<feColorMatrix type="matrix" values="0 0 0 0 1 0 0 0 0 0.152941 0 0 0 0 0 0 0 0 0.2 0"/>
<feBlend mode="normal" in2="BackgroundImageFix" result="effect1_dropShadow_0_734"/>
<feBlend mode="normal" in="SourceGraphic" in2="effect1_dropShadow_0_734" result="shape"/>
</filter>
</defs>
</svg>
