<svg width="166" height="152" viewBox="0 0 166 152" fill="none" xmlns="http://www.w3.org/2000/svg">
<path d="M0.438477 84.9896V96.2223C1.07091 101.183 3.72177 104.506 8.39105 106.191C9.12854 106.459 10.208 106.611 11.6293 106.648C12.3014 106.667 12.9832 106.998 13.2404 107.658C16.93 117.095 22.9531 124.707 31.3098 130.496C31.3741 130.541 31.4138 130.602 31.4288 130.679C32.3185 135.904 33.2189 141.323 34.13 146.938C34.4612 148.967 35.2716 150.475 37.185 151.321C37.8088 151.596 38.8325 151.725 40.256 151.71C44.8096 151.663 49.392 151.662 54.0034 151.707C55.9104 151.726 57.6179 151.064 58.6534 149.401C59.0736 148.728 59.4145 147.494 59.676 145.7C60.0019 143.473 60.3781 141.208 60.8047 138.905C60.8155 138.849 60.8487 138.821 60.9044 138.821H94.2519C94.3676 138.821 94.4352 138.878 94.4545 138.992C94.8854 141.427 95.2863 143.852 95.6572 146.266C96.0077 148.578 96.5833 150.311 98.7507 151.276C99.4453 151.585 100.523 151.732 101.983 151.717C106.508 151.665 111.002 151.66 115.463 151.701C117.492 151.72 119.084 151.199 120.271 149.446C120.661 148.872 120.982 147.785 121.235 146.186C122.086 140.824 122.943 135.667 123.805 130.715C123.814 130.662 123.833 130.611 123.862 130.566C123.891 130.521 123.928 130.481 123.972 130.451C136.388 121.894 144.035 108.625 145.045 93.5757C145.047 93.5416 145.06 93.5092 145.082 93.4836C145.104 93.458 145.134 93.4406 145.167 93.4342C156.242 91.2829 164.249 82.4042 165.085 71.0171V69.0459C164.595 66.7627 163.284 65.3906 161.153 64.9297C159.075 64.4795 156.689 65.7497 155.853 67.7757C155.591 68.4102 155.449 69.1316 155.425 69.9399C155.223 76.4614 151.078 81.7932 144.829 83.6294C144.694 83.6679 144.616 83.6197 144.595 83.4847C141.572 65.6533 129.246 51.6293 112.363 45.3039C112.26 45.2632 112.218 45.1882 112.238 45.0788C114.227 33.9973 112.058 24.1464 105.729 15.526C100.921 8.97547 93.5251 3.84312 85.4085 1.76573C71.5615 -1.77803 57.2481 2.66615 47.9771 13.4615C42.446 19.8994 39.4682 27.4875 39.0437 36.2258C39.0373 36.3587 38.9762 36.393 38.8604 36.3287C33.1449 33.1344 27.0971 32.0528 20.7171 33.084C17.9129 33.5407 16.1217 36.02 16.6138 38.8306C17.9215 46.2762 19.2003 53.5288 20.4502 60.5884C20.4613 60.6511 20.459 60.7155 20.4435 60.7775C20.428 60.8396 20.3996 60.8979 20.3601 60.9486C17.4059 64.7153 15.0445 68.884 13.2758 73.4547C12.9735 74.2329 12.3046 74.4805 11.5361 74.5095C5.5451 74.7506 1.00446 79.0276 0.438477 84.9896ZM48.6845 37.5218C48.6845 33.9335 49.3913 30.3804 50.7645 27.0652C52.1377 23.7501 54.1504 20.7379 56.6877 18.2006C59.225 15.6633 62.2372 13.6506 65.5523 12.2774C68.8674 10.9042 72.4206 10.1975 76.0089 10.1975C83.2557 10.1975 90.2058 13.0763 95.3301 18.2006C100.454 23.3249 103.333 30.2749 103.333 37.5218C103.333 44.7686 100.454 51.7187 95.3301 56.843C90.2058 61.9673 83.2557 64.8461 76.0089 64.8461C72.4206 64.8461 68.8674 64.1393 65.5523 62.7662C62.2372 61.393 59.225 59.3803 56.6877 56.843C54.1504 54.3057 52.1377 51.2935 50.7645 47.9783C49.3913 44.6632 48.6845 41.1101 48.6845 37.5218ZM27.0714 42.6027C27.0684 42.5826 27.0699 42.5622 27.0758 42.5428C27.0818 42.5235 27.092 42.5058 27.1057 42.4912C27.1193 42.4766 27.1361 42.4654 27.1547 42.4585C27.1733 42.4516 27.1933 42.4493 27.2129 42.4515C31.8865 43.0497 35.7593 45.1367 38.8315 48.7126C39.7608 49.7931 40.4426 51.1084 41.2529 52.2821C41.7224 52.9639 42.5296 53.2083 42.8865 53.9254C44.9232 58.0244 47.6115 61.61 50.9517 64.6821C51.0824 64.8 51.0599 64.86 50.8841 64.8622C48.646 64.8708 46.4453 64.8665 44.2822 64.8493C42.2905 64.8322 40.8113 65.5654 39.8444 67.0489C38.1401 69.6601 39.272 73.1106 42.1951 74.1943C42.7911 74.4151 43.5393 74.5245 44.4397 74.5223C66.2919 74.4945 87.4602 74.4934 107.945 74.5191C110.443 74.5223 112.511 72.8919 112.926 70.4158C113.283 68.2677 112.048 66.1067 110.077 65.2706C109.324 64.9511 108.34 64.8054 107.125 64.8332C105.105 64.8804 103.183 64.8804 101.359 64.8332C101.067 64.8268 101.027 64.7239 101.24 64.5245C104.312 61.6646 106.854 58.3117 108.868 54.4656C108.919 54.3692 108.995 54.3402 109.096 54.3788C128.78 61.6721 140.417 82.3913 133.487 102.882C130.786 110.868 125.906 117.32 118.846 122.238C116.929 123.572 115.013 124.386 114.579 127.081C113.768 132.117 112.955 137.046 112.138 141.87C112.13 141.917 112.105 141.959 112.069 141.99C112.032 142.02 111.986 142.037 111.939 142.037H104.883C104.804 142.037 104.758 141.999 104.745 141.921C104.316 139.572 103.912 137.128 103.533 134.59C103.192 132.297 102.645 130.657 100.526 129.615C99.8762 129.295 98.9265 129.138 97.6767 129.142C83.6302 129.189 70.0715 129.192 57.0005 129.152C55.2286 129.148 53.6175 129.895 52.6367 131.445C52.223 132.101 51.8928 133.261 51.6463 134.927C51.2646 137.504 50.8777 139.839 50.4854 141.931C50.4801 141.961 50.4647 141.987 50.4418 142.007C50.4189 142.026 50.3899 142.037 50.3599 142.037H43.2949C43.1749 142.037 43.1052 141.978 43.0859 141.86C42.3034 137.2 41.4812 132.256 40.6194 127.029C40.3364 125.315 39.4842 124.257 37.96 123.293C30.9689 118.874 25.3285 112.291 22.3925 104.503C20.6624 99.9172 16.6716 97.1259 11.8544 97.023C10.8382 97.0005 10.0825 96.3831 10.0825 95.3154C10.0847 92.4255 10.0847 89.2998 10.0825 85.9383C10.0825 85.0379 10.6131 84.2082 11.5843 84.1825C16.7263 84.0506 20.6045 81.3204 22.415 76.6029C23.9328 72.6443 26.2096 68.8755 28.898 65.7658C29.9785 64.5149 30.6698 63.1128 30.3804 61.4342C29.2528 54.9469 28.1498 48.6698 27.0714 42.6027Z" fill="white"/>
<path d="M80.8485 32.515C80.8078 31.4109 80.8099 30.2779 80.855 29.116C80.9 27.8897 80.7756 26.8982 80.4819 26.1414C78.9577 22.2149 73.3558 21.9609 71.6096 25.9388C71.3009 26.6441 71.1519 27.4984 71.1626 28.5018C71.1991 31.3488 71.2002 34.1754 71.1659 36.9817C71.1241 40.3486 73.3043 42.4228 76.6391 42.3681C79.2803 42.3252 81.884 42.3285 84.4502 42.3778C85.8008 42.4035 86.8395 42.2556 87.5662 41.934C92.4027 39.7891 90.8399 32.8237 85.5821 32.7112C84.0814 32.6812 82.5786 32.6865 81.0736 32.7273C80.9278 32.7316 80.8528 32.6608 80.8485 32.515Z" fill="white"/>
<path d="M32.596 87.3565C29.939 87.3565 27.7852 85.2027 27.7852 82.5458C27.7852 79.8888 29.939 77.735 32.596 77.735C35.2529 77.735 37.4067 79.8888 37.4067 82.5458C37.4067 85.2027 35.2529 87.3565 32.596 87.3565Z" fill="white"/>
</svg>
