<svg width="706" height="706" viewBox="0 0 706 706" fill="none" xmlns="http://www.w3.org/2000/svg">
<g filter="url(#filter0_d_4_8)">
<rect x="53" y="53" width="600" height="600" rx="81.3841" fill="white"/>
</g>
<path d="M203.32 521.36V515H213.1C215.1 515 216.64 514.5 217.72 513.5C218.84 512.46 219.4 511.04 219.4 509.24C219.4 507.6 218.84 506.24 217.72 505.16C216.64 504.04 215.1 503.48 213.1 503.48H203.32V496.82H213.82C216.54 496.82 218.92 497.36 220.96 498.44C223.04 499.48 224.64 500.92 225.76 502.76C226.92 504.6 227.5 506.72 227.5 509.12C227.5 511.6 226.92 513.76 225.76 515.6C224.64 517.4 223.04 518.82 220.96 519.86C218.88 520.86 216.46 521.36 213.7 521.36H203.32ZM197.32 539V496.82H205.48V539H197.32ZM220.36 539L206.44 520.76L213.94 518.42L230.26 539H220.36ZM234.879 539V496.82H243.039V539H234.879ZM240.879 539V531.8H264.219V539H240.879ZM240.879 520.94V513.98H262.119V520.94H240.879ZM240.879 504.02V496.82H263.919V504.02H240.879ZM270.972 539V496.82H279.132V539H270.972ZM276.972 521.72V514.46H298.212V521.72H276.972ZM276.972 504.02V496.82H299.232V504.02H276.972ZM324.873 539.66C321.793 539.66 318.913 539.1 316.232 537.98C313.593 536.86 311.273 535.32 309.273 533.36C307.313 531.36 305.773 529.04 304.653 526.4C303.533 523.72 302.973 520.86 302.973 517.82C302.973 514.78 303.513 511.96 304.593 509.36C305.713 506.72 307.253 504.42 309.213 502.46C311.213 500.46 313.533 498.92 316.173 497.84C318.813 496.72 321.673 496.16 324.753 496.16C327.873 496.16 330.753 496.72 333.393 497.84C336.033 498.92 338.333 500.46 340.293 502.46C342.293 504.42 343.853 506.72 344.973 509.36C346.093 512 346.653 514.84 346.653 517.88C346.653 520.92 346.093 523.76 344.973 526.4C343.853 529.04 342.293 531.36 340.293 533.36C338.333 535.32 336.033 536.86 333.393 537.98C330.793 539.1 327.953 539.66 324.873 539.66ZM324.753 532.04C327.473 532.04 329.833 531.44 331.833 530.24C333.833 529.04 335.393 527.38 336.513 525.26C337.673 523.14 338.253 520.66 338.253 517.82C338.253 515.74 337.933 513.84 337.293 512.12C336.653 510.4 335.733 508.92 334.533 507.68C333.333 506.4 331.913 505.42 330.273 504.74C328.633 504.06 326.793 503.72 324.753 503.72C322.113 503.72 319.773 504.32 317.733 505.52C315.733 506.68 314.153 508.32 312.993 510.44C311.873 512.56 311.313 515.02 311.313 517.82C311.313 519.94 311.633 521.88 312.273 523.64C312.953 525.4 313.873 526.9 315.033 528.14C316.233 529.38 317.653 530.34 319.293 531.02C320.973 531.7 322.793 532.04 324.753 532.04ZM359.121 521.36V515H368.901C370.901 515 372.441 514.5 373.521 513.5C374.641 512.46 375.201 511.04 375.201 509.24C375.201 507.6 374.641 506.24 373.521 505.16C372.441 504.04 370.901 503.48 368.901 503.48H359.121V496.82H369.621C372.341 496.82 374.721 497.36 376.761 498.44C378.841 499.48 380.441 500.92 381.561 502.76C382.721 504.6 383.301 506.72 383.301 509.12C383.301 511.6 382.721 513.76 381.561 515.6C380.441 517.4 378.841 518.82 376.761 519.86C374.681 520.86 372.261 521.36 369.501 521.36H359.121ZM353.121 539V496.82H361.281V539H353.121ZM376.161 539L362.241 520.76L369.741 518.42L386.061 539H376.161ZM390.679 539V496.82H396.439L413.539 524.18H410.239L427.279 496.82H433.039V539H424.939V510.8L426.499 511.28L414.619 530.36H409.099L397.219 511.28L398.839 510.8V539H390.679ZM438.536 539L455.516 496.82H462.176L479.096 539H470.396L457.316 504.38H460.316L447.056 539H438.536ZM447.536 531.14V524.3H470.216V531.14H447.536ZM495.439 539.6C492.039 539.6 489.119 539.02 486.679 537.86C484.279 536.7 482.099 534.96 480.139 532.64L485.539 527.24C486.779 528.88 488.219 530.16 489.859 531.08C491.499 531.96 493.499 532.4 495.859 532.4C497.979 532.4 499.659 531.98 500.899 531.14C502.179 530.3 502.819 529.14 502.819 527.66C502.819 526.38 502.459 525.34 501.739 524.54C501.019 523.74 500.059 523.06 498.859 522.5C497.699 521.94 496.399 521.44 494.959 521C493.559 520.52 492.139 519.98 490.699 519.38C489.299 518.78 487.999 518.04 486.799 517.16C485.639 516.24 484.699 515.08 483.979 513.68C483.259 512.24 482.899 510.44 482.899 508.28C482.899 505.72 483.519 503.54 484.759 501.74C485.999 499.94 487.699 498.56 489.859 497.6C492.019 496.64 494.459 496.16 497.179 496.16C500.059 496.16 502.659 496.7 504.979 497.78C507.299 498.86 509.199 500.26 510.679 501.98L505.279 507.38C504.039 506.02 502.759 505.02 501.439 504.38C500.159 503.74 498.699 503.42 497.059 503.42C495.179 503.42 493.699 503.78 492.619 504.5C491.539 505.22 490.999 506.26 490.999 507.62C490.999 508.78 491.359 509.72 492.079 510.44C492.799 511.16 493.739 511.78 494.899 512.3C496.099 512.82 497.399 513.32 498.799 513.8C500.239 514.28 501.659 514.82 503.059 515.42C504.499 516.02 505.799 516.8 506.959 517.76C508.159 518.72 509.119 519.96 509.839 521.48C510.559 522.96 510.919 524.8 510.919 527C510.919 530.92 509.539 534 506.779 536.24C504.019 538.48 500.239 539.6 495.439 539.6Z" fill="#FF2700"/>
<path d="M368.515 301.828L484.53 416.895L440.79 460.5L325.015 344.385C297.786 354.615 263.187 351.733 241.226 329.865C217.53 306.24 217.583 266.584 231.376 237.996L282.546 289.008L313.202 258.463L262.032 207.451C290.585 193.582 330.622 193.512 354.318 217.137C376.601 239.35 379.384 274.324 368.515 301.828Z" fill="#FF2700"/>
<defs>
<filter id="filter0_d_4_8" x="0" y="0" width="706" height="706" filterUnits="userSpaceOnUse" color-interpolation-filters="sRGB">
<feFlood flood-opacity="0" result="BackgroundImageFix"/>
<feColorMatrix in="SourceAlpha" type="matrix" values="0 0 0 0 0 0 0 0 0 0 0 0 0 0 0 0 0 0 127 0" result="hardAlpha"/>
<feMorphology radius="3" operator="dilate" in="SourceAlpha" result="effect1_dropShadow_4_8"/>
<feOffset/>
<feGaussianBlur stdDeviation="25"/>
<feComposite in2="hardAlpha" operator="out"/>
<feColorMatrix type="matrix" values="0 0 0 0 1 0 0 0 0 0.152941 0 0 0 0 0 0 0 0 0.2 0"/>
<feBlend mode="normal" in2="BackgroundImageFix" result="effect1_dropShadow_4_8"/>
<feBlend mode="normal" in="SourceGraphic" in2="effect1_dropShadow_4_8" result="shape"/>
</filter>
</defs>
</svg>
