<svg width="706" height="706" viewBox="0 0 706 706" fill="none" xmlns="http://www.w3.org/2000/svg">
<g filter="url(#filter0_d_0_740)">
<rect x="53" y="53" width="600" height="600" rx="81.3841" fill="white"/>
</g>
<path d="M203.96 498.941H176.12C175.22 498.941 174.68 499.481 174.68 500.381V503.621C174.68 504.521 175.22 505.061 176.12 505.061H186.68V536.501C186.68 537.401 187.22 537.941 188.12 537.941H191.96C192.86 537.941 193.4 537.401 193.4 536.501V505.061H203.96C204.86 505.061 205.4 504.521 205.4 503.621V500.381C205.4 499.481 204.86 498.941 203.96 498.941ZM237.133 503.621V500.381C237.133 499.481 236.593 498.941 235.693 498.941H212.593C211.693 498.941 211.153 499.481 211.153 500.381V536.501C211.153 537.401 211.693 537.941 212.593 537.941H235.693C236.593 537.941 237.133 537.401 237.133 536.501V533.261C237.133 532.361 236.593 531.821 235.693 531.821H217.813V521.501H234.433C235.333 521.501 235.873 520.961 235.873 520.061V516.821C235.873 515.921 235.333 515.381 234.433 515.381H217.813V505.061H235.693C236.593 505.061 237.133 504.521 237.133 503.621ZM273.158 509.441L276.278 507.161C276.998 506.621 277.118 505.901 276.578 505.181C273.158 500.981 267.998 498.461 261.638 498.461C250.058 498.461 242.018 506.861 242.018 518.441C242.018 530.021 250.058 538.421 261.638 538.421C267.998 538.421 273.158 535.901 276.578 531.701C277.178 530.981 277.058 530.261 276.278 529.661L273.158 527.261C272.378 526.661 271.778 526.841 271.118 527.501C268.958 529.841 265.658 531.761 261.638 531.761C253.898 531.761 248.678 526.121 248.678 518.441C248.678 510.761 253.898 505.121 261.638 505.121C265.658 505.121 269.018 506.861 271.118 509.201C271.778 509.861 272.438 509.981 273.158 509.441ZM307.351 500.381V526.361L290.011 499.901C289.591 499.241 289.051 498.941 288.271 498.941H284.371C283.471 498.941 282.931 499.481 282.931 500.381V536.501C282.931 537.401 283.471 537.941 284.371 537.941H288.151C289.051 537.941 289.591 537.401 289.591 536.501V510.521L306.931 536.981C307.351 537.641 307.891 537.941 308.671 537.941H312.571C313.471 537.941 314.011 537.401 314.011 536.501V500.381C314.011 499.481 313.471 498.941 312.571 498.941H308.791C307.891 498.941 307.351 499.481 307.351 500.381ZM339.978 538.421C351.558 538.421 359.478 530.021 359.478 518.441C359.478 506.861 351.558 498.461 339.978 498.461C328.398 498.461 320.358 506.861 320.358 518.441C320.358 530.021 328.398 538.421 339.978 538.421ZM339.978 531.761C332.238 531.761 327.018 526.121 327.018 518.441C327.018 510.761 332.238 505.121 339.978 505.121C347.718 505.121 352.758 510.761 352.758 518.441C352.758 526.121 347.718 531.761 339.978 531.761ZM372.149 531.821V500.381C372.149 499.481 371.609 498.941 370.709 498.941H366.929C366.029 498.941 365.489 499.481 365.489 500.381V536.501C365.489 537.401 366.029 537.941 366.929 537.941H389.909C390.809 537.941 391.349 537.401 391.349 536.501V533.261C391.349 532.361 390.809 531.821 389.909 531.821H372.149ZM413.572 538.421C425.152 538.421 433.072 530.021 433.072 518.441C433.072 506.861 425.152 498.461 413.572 498.461C401.992 498.461 393.952 506.861 393.952 518.441C393.952 530.021 401.992 538.421 413.572 538.421ZM413.572 531.761C405.832 531.761 400.612 526.121 400.612 518.441C400.612 510.761 405.832 505.121 413.572 505.121C421.312 505.121 426.352 510.761 426.352 518.441C426.352 526.121 421.312 531.761 413.572 531.761ZM476.823 519.341V517.841C476.823 516.941 476.283 516.401 475.383 516.401H459.123C458.223 516.401 457.683 516.941 457.683 517.841V521.081C457.683 521.981 458.223 522.521 459.123 522.521H469.203C468.303 528.401 463.623 531.761 458.103 531.761C450.363 531.761 445.143 526.121 445.143 518.441C445.143 510.761 450.363 505.121 458.103 505.121C461.643 505.121 465.063 506.441 467.523 509.141C468.183 509.801 468.843 509.921 469.563 509.381L472.683 507.101C473.403 506.561 473.583 505.841 472.983 505.121C469.623 500.981 464.403 498.461 458.103 498.461C446.523 498.461 438.483 506.861 438.483 518.441C438.483 530.021 446.523 538.421 458.103 538.421C469.383 538.421 476.403 530.441 476.823 519.341ZM489.806 536.501V500.381C489.806 499.481 489.266 498.941 488.366 498.941H484.586C483.686 498.941 483.146 499.481 483.146 500.381V536.501C483.146 537.401 483.686 537.941 484.586 537.941H488.366C489.266 537.941 489.806 537.401 489.806 536.501ZM525.841 537.941H529.921C531.001 537.941 531.481 537.221 531.061 536.261L516.301 500.081C516.001 499.361 515.401 498.941 514.621 498.941H511.921C511.141 498.941 510.541 499.361 510.241 500.081L495.541 536.261C495.121 537.221 495.601 537.941 496.681 537.941H500.761C501.541 537.941 502.081 537.521 502.381 536.801L504.961 530.441H521.641L524.221 536.801C524.521 537.521 525.061 537.941 525.841 537.941ZM507.361 524.321L513.301 509.441L519.241 524.321H507.361Z" fill="#FF2700"/>
<path d="M404 256H304V356H404V256Z" fill="#FF2700"/>
<path fill-rule="evenodd" clip-rule="evenodd" d="M304 172.667C304 168.246 305.756 164.007 308.882 160.882C312.007 157.756 316.246 156 320.667 156C325.087 156 329.326 157.756 332.452 160.882C335.577 164.007 337.333 168.246 337.333 172.667V189.333H370.667V172.667C370.667 168.246 372.423 164.007 375.548 160.882C378.674 157.756 382.913 156 387.333 156C391.754 156 395.993 157.756 399.118 160.882C402.244 164.007 404 168.246 404 172.667V189.333H437.333C446.174 189.333 454.652 192.845 460.904 199.096C467.155 205.348 470.667 213.826 470.667 222.667V256H487.333C491.754 256 495.993 257.756 499.118 260.882C502.244 264.007 504 268.246 504 272.667C504 277.087 502.244 281.326 499.118 284.452C495.993 287.577 491.754 289.333 487.333 289.333H470.667V322.667H487.333C491.754 322.667 495.993 324.423 499.118 327.548C502.244 330.674 504 334.913 504 339.333C504 343.754 502.244 347.993 499.118 351.118C495.993 354.244 491.754 356 487.333 356H470.667V389.333C470.667 398.174 467.155 406.652 460.904 412.904C454.652 419.155 446.174 422.667 437.333 422.667H404V439.333C404 443.754 402.244 447.993 399.118 451.118C395.993 454.244 391.754 456 387.333 456C382.913 456 378.674 454.244 375.548 451.118C372.423 447.993 370.667 443.754 370.667 439.333V422.667H337.333V439.333C337.333 443.754 335.577 447.993 332.452 451.118C329.326 454.244 325.087 456 320.667 456C316.246 456 312.007 454.244 308.882 451.118C305.756 447.993 304 443.754 304 439.333V422.667H270.667C261.826 422.667 253.348 419.155 247.096 412.904C240.845 406.652 237.333 398.174 237.333 389.333V356H220.667C216.246 356 212.007 354.244 208.882 351.118C205.756 347.993 204 343.754 204 339.333C204 334.913 205.756 330.674 208.882 327.548C212.007 324.423 216.246 322.667 220.667 322.667H237.333V289.333H220.667C216.246 289.333 212.007 287.577 208.882 284.452C205.756 281.326 204 277.087 204 272.667C204 268.246 205.756 264.007 208.882 260.882C212.007 257.756 216.246 256 220.667 256H237.333V222.667C237.333 213.826 240.845 205.348 247.096 199.096C253.348 192.845 261.826 189.333 270.667 189.333H304V172.667ZM270.667 222.667H437.333V389.333H270.667V222.667Z" fill="#FF2700"/>
<defs>
<filter id="filter0_d_0_740" x="0" y="0" width="706" height="706" filterUnits="userSpaceOnUse" color-interpolation-filters="sRGB">
<feFlood flood-opacity="0" result="BackgroundImageFix"/>
<feColorMatrix in="SourceAlpha" type="matrix" values="0 0 0 0 0 0 0 0 0 0 0 0 0 0 0 0 0 0 127 0" result="hardAlpha"/>
<feMorphology radius="3" operator="dilate" in="SourceAlpha" result="effect1_dropShadow_0_740"/>
<feOffset/>
<feGaussianBlur stdDeviation="25"/>
<feComposite in2="hardAlpha" operator="out"/>
<feColorMatrix type="matrix" values="0 0 0 0 1 0 0 0 0 0.152941 0 0 0 0 0 0 0 0 0.2 0"/>
<feBlend mode="normal" in2="BackgroundImageFix" result="effect1_dropShadow_0_740"/>
<feBlend mode="normal" in="SourceGraphic" in2="effect1_dropShadow_0_740" result="shape"/>
</filter>
</defs>
</svg>
