<svg width="30" height="38" viewBox="0 0 30 38" fill="none" xmlns="http://www.w3.org/2000/svg">
<path d="M14.7502 18.8694C12.7471 18.8694 11.1081 17.2305 11.1081 15.2273C11.1081 13.2241 12.7471 11.5851 14.7502 11.5851C16.7534 11.5851 18.3924 13.2241 18.3924 15.2273C18.3924 17.2305 16.7534 18.8694 14.7502 18.8694ZM25.6767 15.5915C25.6767 8.981 20.8508 4.30084 14.7502 4.30084C8.64964 4.30084 3.82379 8.981 3.82379 15.5915C3.82379 19.8528 7.37489 25.4982 14.7502 32.2361C22.1256 25.4982 25.6767 19.8528 25.6767 15.5915ZM14.7502 0.658691C22.3988 0.658691 29.3188 6.52255 29.3188 15.5915C29.3188 21.6375 24.4566 28.7943 14.7502 37.0802C5.04391 28.7943 0.181641 21.6375 0.181641 15.5915C0.181641 6.52255 7.10173 0.658691 14.7502 0.658691Z" fill="#FF2700"/>
</svg>
