<svg width="53" height="53" viewBox="0 0 53 53" fill="none" xmlns="http://www.w3.org/2000/svg">
<path fill-rule="evenodd" clip-rule="evenodd" d="M38.6038 31.2578C37.9548 30.9349 34.7733 29.3789 34.181 29.1622C33.5887 28.9476 33.1575 28.8414 32.7242 29.4872C32.293 30.1287 31.054 31.5807 30.6772 32.0098C30.2983 32.4411 29.9216 32.4931 29.2749 32.1724C28.6281 31.8473 26.542 31.169 24.0704 28.9758C22.1475 27.2681 20.8475 25.1594 20.4708 24.5136C20.094 23.8699 20.4294 23.521 20.7539 23.2003C21.0457 22.912 21.4006 22.4482 21.7251 22.0733C22.0495 21.6962 22.1562 21.4275 22.3718 20.9962C22.5896 20.5671 22.4807 20.1922 22.3174 19.8693C22.1562 19.5464 20.8627 16.3758 20.3227 15.0863C19.7979 13.8315 19.2644 14.0027 18.868 13.9811C18.4891 13.9637 18.058 13.9594 17.6268 13.9594C17.1956 13.9594 16.4944 14.1198 15.9021 14.7656C15.3076 15.4092 13.6374 16.9674 13.6374 20.138C13.6374 23.3064 15.9544 26.3687 16.2789 26.7999C16.6033 27.229 20.841 33.7349 27.3324 36.5241C28.8785 37.1872 30.0828 37.5838 31.0213 37.8786C32.5718 38.3705 33.9829 38.3012 35.0978 38.1343C36.339 37.9501 38.926 36.5761 39.4661 35.0721C40.004 33.568 40.004 32.2786 39.8428 32.0098C39.6817 31.7411 39.2505 31.5807 38.6016 31.2578H38.6038ZM26.7967 47.3015H26.788C22.9324 47.3022 19.1476 46.2707 15.8303 44.3151L15.0463 43.8513L6.8977 45.9795L9.07314 38.0736L8.5614 37.2631C6.40586 33.8484 5.26514 29.8964 5.27103 25.8637C5.27538 14.0526 14.9309 4.44331 26.8054 4.44331C32.5543 4.44331 37.9592 6.67551 42.0226 10.7238C44.0268 12.7102 45.6154 15.0724 46.6964 17.6737C47.7773 20.2751 48.3293 23.0639 48.3203 25.8789C48.3159 37.69 38.6604 47.3015 26.7967 47.3015ZM45.1148 7.64857C42.7155 5.245 39.8607 3.33921 36.716 2.04164C33.5712 0.744071 30.1989 0.0805215 26.7946 0.0894443C12.5225 0.0894443 0.902735 11.6514 0.89838 25.8616C0.891766 30.3839 2.08382 34.828 4.35425 38.7454L0.680618 52.1018L14.4083 48.5173C18.2058 50.5763 22.4613 51.6552 26.7858 51.6553H26.7967C41.0688 51.6553 52.6886 40.0934 52.6929 25.8811C52.7034 22.4943 52.0391 19.1392 50.7383 16.0096C49.4376 12.8801 47.5262 10.0383 45.1148 7.64857Z" fill="white"/>
</svg>
