<svg width="395" height="102" viewBox="0 0 595 102" fill="none" xmlns="http://www.w3.org/2000/svg">
<rect x="0.464539" y="0.481445" width="593.948" height="100.669" rx="50.3346" fill="#0DC153"/>
<path fill-rule="evenodd" clip-rule="evenodd" d="M87.6038 56.2578C86.9548 55.9349 83.7733 54.3789 83.181 54.1622C82.5887 53.9476 82.1575 53.8414 81.7242 54.4872C81.293 55.1287 80.054 56.5807 79.6772 57.0098C79.2983 57.4411 78.9216 57.4931 78.2749 57.1724C77.6281 56.8473 75.542 56.169 73.0704 53.9758C71.1475 52.2681 69.8475 50.1594 69.4708 49.5136C69.094 48.8699 69.4294 48.521 69.7539 48.2003C70.0457 47.912 70.4006 47.4482 70.7251 47.0733C71.0495 46.6962 71.1562 46.4275 71.3718 45.9962C71.5896 45.5671 71.4807 45.1922 71.3174 44.8693C71.1562 44.5464 69.8627 41.3758 69.3227 40.0863C68.7979 38.8315 68.2644 39.0027 67.868 38.9811C67.4891 38.9637 67.058 38.9594 66.6268 38.9594C66.1956 38.9594 65.4944 39.1198 64.9021 39.7656C64.3076 40.4092 62.6374 41.9674 62.6374 45.138C62.6374 48.3064 64.9544 51.3687 65.2789 51.7999C65.6033 52.229 69.841 58.7349 76.3324 61.5241C77.8785 62.1872 79.0828 62.5838 80.0213 62.8786C81.5718 63.3705 82.9829 63.3012 84.0978 63.1343C85.339 62.9501 87.926 61.5761 88.4661 60.0721C89.004 58.568 89.004 57.2786 88.8428 57.0098C88.6817 56.7411 88.2505 56.5807 87.6016 56.2578H87.6038ZM75.7967 72.3015H75.788C71.9324 72.3022 68.1476 71.2707 64.8303 69.3151L64.0463 68.8513L55.8977 70.9795L58.0731 63.0736L57.5614 62.2631C55.4059 58.8484 54.2651 54.8964 54.271 50.8637C54.2754 39.0526 63.9309 29.4433 75.8054 29.4433C81.5543 29.4433 86.9592 31.6755 91.0226 35.7238C93.0268 37.7102 94.6154 40.0724 95.6964 42.6737C96.7773 45.2751 97.3293 48.0639 97.3203 50.8789C97.3159 62.69 87.6604 72.3015 75.7967 72.3015ZM94.1148 32.6486C91.7155 30.245 88.8607 28.3392 85.716 27.0416C82.5712 25.7441 79.1989 25.0805 75.7946 25.0894C61.5225 25.0894 49.9027 36.6514 49.8984 50.8616C49.8918 55.3839 51.0838 59.828 53.3543 63.7454L49.6806 77.1018L63.4083 73.5173C67.2058 75.5763 71.4613 76.6552 75.7858 76.6553H75.7967C90.0688 76.6553 101.689 65.0934 101.693 50.8811C101.703 47.4943 101.039 44.1392 99.7383 41.0096C98.4376 37.8801 96.5262 35.0383 94.1148 32.6486Z" fill="white"/>
<path d="M121.644 63.4785H124.054C124.501 63.4785 124.769 63.2106 124.769 62.7642V56.1568H132.835C133.281 56.1568 133.549 55.8889 133.549 55.4425V53.2698C133.549 52.8233 133.281 52.5555 132.835 52.5555H124.769V47.7636H133.4C133.847 47.7636 134.114 47.4957 134.114 47.0493V44.8468C134.114 44.4004 133.847 44.1325 133.4 44.1325H121.644C121.197 44.1325 120.929 44.4004 120.929 44.8468V62.7642C120.929 63.2106 121.197 63.4785 121.644 63.4785ZM142.2 63.7166C143.926 63.7166 145.206 63.0916 146.129 62.0499V62.7642C146.129 63.2106 146.397 63.4785 146.843 63.4785H149.135C149.581 63.4785 149.849 63.2106 149.849 62.7642V50.5018C149.849 50.0554 149.581 49.7875 149.135 49.7875H146.843C146.397 49.7875 146.129 50.0554 146.129 50.5018V51.2459C145.206 50.2042 143.926 49.5792 142.2 49.5792C138.45 49.5792 135.712 52.4959 135.712 56.633C135.712 60.7105 138.45 63.7166 142.2 63.7166ZM142.736 60.2046C140.682 60.2046 139.313 58.6867 139.313 56.633C139.313 54.5793 140.682 53.0614 142.736 53.0614C144.79 53.0614 146.129 54.5793 146.129 56.633C146.129 58.6867 144.79 60.2046 142.736 60.2046ZM153.848 63.4785H156.14C156.586 63.4785 156.854 63.2106 156.854 62.7642L156.884 44.8468C156.884 44.4004 156.616 44.1325 156.17 44.1325H153.848C153.402 44.1325 153.134 44.4004 153.134 44.8468V62.7642C153.134 63.2106 153.402 63.4785 153.848 63.4785ZM166.626 63.7761C168.888 63.7761 170.793 62.913 172.014 61.4844C172.281 61.157 172.192 60.8594 171.805 60.5617L170.406 59.52C170.049 59.2522 169.752 59.3117 169.424 59.6093C168.859 60.1153 167.996 60.5915 166.626 60.5915C164.93 60.5915 163.591 59.4903 163.233 57.6449H172.341C172.787 57.6449 173.055 57.3771 173.055 56.9306V56.633C173.055 52.5555 170.555 49.5196 166.478 49.5196C162.341 49.5196 159.662 52.5555 159.662 56.633C159.662 60.7105 162.43 63.7761 166.626 63.7761ZM163.293 55.2937C163.65 53.5674 164.781 52.4662 166.478 52.4662C168.234 52.4662 169.246 53.6865 169.573 55.2937H163.293ZM188.281 63.7464C190.454 63.7464 192.239 62.8833 193.46 61.4546C193.728 61.1272 193.668 60.8296 193.281 60.532L191.733 59.3712C191.376 59.1033 191.079 59.1331 190.722 59.4307C190.216 59.8474 189.501 60.2046 188.37 60.2046C186.317 60.2046 184.918 58.6867 184.918 56.633C184.918 54.5793 186.317 53.0614 188.37 53.0614C189.471 53.0614 190.216 53.4484 190.722 53.8948C191.079 54.1924 191.376 54.2222 191.733 53.9543L193.281 52.7638C193.638 52.4662 193.698 52.109 193.4 51.7519C192.21 50.3828 190.424 49.5494 188.281 49.5494C184.144 49.5494 181.287 52.4959 181.287 56.633C181.287 60.7701 184.144 63.7464 188.281 63.7464ZM202.583 63.7761C206.749 63.7761 209.636 60.7105 209.636 56.633C209.636 52.4959 206.749 49.5196 202.583 49.5196C198.445 49.5196 195.529 52.4959 195.529 56.633C195.529 60.7105 198.445 63.7761 202.583 63.7761ZM202.583 60.2046C200.559 60.2046 199.19 58.6867 199.19 56.633C199.19 54.5793 200.559 53.0614 202.583 53.0614C204.636 53.0614 205.976 54.5793 205.976 56.633C205.976 58.6867 204.636 60.2046 202.583 60.2046ZM213.113 63.4785H215.405C215.851 63.4785 216.119 63.2106 216.119 62.7642V55.6211C216.119 53.24 217.726 52.8233 218.589 52.8233C219.452 52.8233 221.119 53.24 221.119 55.6211V62.7642C221.119 63.2106 221.387 63.4785 221.833 63.4785H224.125C224.572 63.4785 224.84 63.2106 224.84 62.7642V55.6211C224.84 53.24 226.477 52.8233 227.31 52.8233C228.173 52.8233 229.87 53.24 229.87 55.6211V62.7642C229.87 63.2106 230.137 63.4785 230.584 63.4785H232.876C233.322 63.4785 233.59 63.2106 233.59 62.7642V55.1151C233.59 50.8292 230.881 49.5792 228.471 49.5792C226.953 49.5792 225.137 50.0851 223.976 51.6626C222.994 50.1149 221.327 49.5792 219.75 49.5792C218.5 49.5792 217.131 50.0554 216.119 51.1566V50.472C216.119 50.0256 215.851 49.7875 215.405 49.7875H213.113C212.666 49.7875 212.399 50.0554 212.399 50.5018V62.7642C212.399 63.2106 212.666 63.4785 213.113 63.4785ZM248.813 63.7166C250.539 63.7166 251.819 63.0916 252.741 62.0499V62.7642C252.741 63.2106 253.009 63.4785 253.456 63.4785H255.747C256.194 63.4785 256.462 63.2106 256.462 62.7642V50.5018C256.462 50.0554 256.194 49.7875 255.747 49.7875H253.456C253.009 49.7875 252.741 50.0554 252.741 50.5018V51.2459C251.819 50.2042 250.539 49.5792 248.813 49.5792C245.062 49.5792 242.324 52.4959 242.324 56.633C242.324 60.7105 245.062 63.7166 248.813 63.7166ZM249.348 60.2046C247.295 60.2046 245.926 58.6867 245.926 56.633C245.926 54.5793 247.295 53.0614 249.348 53.0614C251.402 53.0614 252.741 54.5793 252.741 56.633C252.741 58.6867 251.402 60.2046 249.348 60.2046ZM272.015 69.3121C276.747 69.3121 279.336 66.4548 279.336 62.5261V50.5018C279.336 50.0554 279.068 49.7875 278.622 49.7875H276.33C275.884 49.7875 275.616 50.0554 275.616 50.5018V51.2756C274.693 50.2042 273.384 49.5792 271.657 49.5792C267.907 49.5792 265.199 52.5555 265.199 56.633C265.199 60.7105 267.907 63.7166 271.657 63.7166C273.384 63.7166 274.693 63.0618 275.616 62.0201V62.5261C275.616 65.4726 273.294 66.187 272.015 66.187C271.122 66.187 270.08 66.0084 269.127 65.2345C268.77 64.9667 268.443 64.9369 268.116 65.2345L266.776 66.3655C266.419 66.6929 266.36 67.0501 266.717 67.3775C267.996 68.568 269.842 69.3121 272.015 69.3121ZM272.193 60.2046C270.139 60.2046 268.8 58.6867 268.8 56.633C268.8 54.5793 270.139 53.0614 272.193 53.0614C274.247 53.0614 275.616 54.5793 275.616 56.633C275.616 58.6867 274.247 60.2046 272.193 60.2046ZM289.079 63.7761C291.341 63.7761 293.246 62.913 294.467 61.4844C294.734 61.157 294.645 60.8594 294.258 60.5617L292.859 59.52C292.502 59.2522 292.205 59.3117 291.877 59.6093C291.312 60.1153 290.449 60.5915 289.079 60.5915C287.383 60.5915 286.044 59.4903 285.686 57.6449H294.794C295.24 57.6449 295.508 57.3771 295.508 56.9306V56.633C295.508 52.5555 293.008 49.5196 288.931 49.5196C284.794 49.5196 282.115 52.5555 282.115 56.633C282.115 60.7105 284.883 63.7761 289.079 63.7761ZM285.746 55.2937C286.103 53.5674 287.234 52.4662 288.931 52.4662C290.687 52.4662 291.699 53.6865 292.026 55.2937H285.746ZM299.002 63.4785H301.293C301.74 63.4785 302.008 63.2106 302.008 62.7642V55.6806C302.008 53.2698 303.645 52.7043 304.716 52.7043C305.758 52.7043 307.454 53.2698 307.454 55.6806V62.7642C307.454 63.2106 307.722 63.4785 308.169 63.4785H310.46C310.907 63.4785 311.175 63.2106 311.175 62.7642V55.1151C311.175 50.9185 308.317 49.5792 305.847 49.5792C304.508 49.5792 303.049 49.9661 302.008 51.0971V50.4423C302.008 50.0256 301.74 49.7875 301.293 49.7875H299.002C298.555 49.7875 298.287 50.0554 298.287 50.5018V62.7642C298.287 63.2106 298.555 63.4785 299.002 63.4785ZM319.126 63.4785H320.882C321.328 63.4785 321.596 63.2106 321.596 62.7642V61.3058C321.596 60.8594 321.328 60.5915 320.882 60.5915H320.674C319.811 60.5915 318.828 60.532 318.828 58.9248V52.615H321.031C321.477 52.615 321.745 52.3471 321.745 51.9007V50.5018C321.745 50.0554 321.477 49.7875 321.031 49.7875H318.828V46.3052C318.828 45.8588 318.561 45.5909 318.114 45.5909H315.822C315.376 45.5909 315.108 45.8588 315.108 46.3052V49.7875H314.037C313.59 49.7875 313.322 50.0554 313.322 50.5018V51.9007C313.322 52.3471 313.59 52.615 314.037 52.615H315.108V59.52C315.108 62.0499 316.388 63.4785 319.126 63.4785ZM330.382 63.7761C332.644 63.7761 334.548 62.913 335.769 61.4844C336.037 61.157 335.947 60.8594 335.56 60.5617L334.161 59.52C333.804 59.2522 333.507 59.3117 333.179 59.6093C332.614 60.1153 331.751 60.5915 330.382 60.5915C328.685 60.5915 327.346 59.4903 326.989 57.6449H336.096C336.543 57.6449 336.81 57.3771 336.81 56.9306V56.633C336.81 52.5555 334.31 49.5196 330.233 49.5196C326.096 49.5196 323.417 52.5555 323.417 56.633C323.417 60.7105 326.185 63.7761 330.382 63.7761ZM327.048 55.2937C327.405 53.5674 328.536 52.4662 330.233 52.4662C331.989 52.4662 333.001 53.6865 333.328 55.2937H327.048ZM346.262 68.9549H348.554C349 68.9549 349.268 68.6871 349.268 68.2406V62.0499C350.191 63.0916 351.471 63.7166 353.197 63.7166C356.947 63.7166 359.685 60.7998 359.685 56.6628C359.685 52.5852 356.947 49.5792 353.197 49.5792C351.471 49.5792 350.191 50.2042 349.268 51.2459V50.5018C349.268 50.0554 349 49.7875 348.554 49.7875H346.262C345.816 49.7875 345.548 50.0554 345.548 50.5018V68.2406C345.548 68.6871 345.816 68.9549 346.262 68.9549ZM352.661 60.2046C350.607 60.2046 349.268 58.7164 349.268 56.6628C349.268 54.6091 350.607 53.0614 352.661 53.0614C354.715 53.0614 356.084 54.6091 356.084 56.6628C356.084 58.7164 354.715 60.2046 352.661 60.2046ZM368.922 63.7761C371.184 63.7761 373.089 62.913 374.31 61.4844C374.577 61.157 374.488 60.8594 374.101 60.5617L372.702 59.52C372.345 59.2522 372.048 59.3117 371.72 59.6093C371.155 60.1153 370.292 60.5915 368.922 60.5915C367.226 60.5915 365.887 59.4903 365.529 57.6449H374.637C375.083 57.6449 375.351 57.3771 375.351 56.9306V56.633C375.351 52.5555 372.851 49.5196 368.774 49.5196C364.637 49.5196 361.958 52.5555 361.958 56.633C361.958 60.7105 364.726 63.7761 368.922 63.7761ZM365.589 55.2937C365.946 53.5674 367.077 52.4662 368.774 52.4662C370.53 52.4662 371.542 53.6865 371.869 55.2937H365.589ZM378.844 63.4785H381.136C381.583 63.4785 381.851 63.2106 381.851 62.7642L381.88 44.8468C381.88 44.4004 381.612 44.1325 381.166 44.1325H378.844C378.398 44.1325 378.13 44.4004 378.13 44.8468V62.7642C378.13 63.2106 378.398 63.4785 378.844 63.4785ZM391.712 63.7761C395.879 63.7761 398.766 60.7105 398.766 56.633C398.766 52.4959 395.879 49.5196 391.712 49.5196C387.575 49.5196 384.658 52.4959 384.658 56.633C384.658 60.7105 387.575 63.7761 391.712 63.7761ZM391.712 60.2046C389.688 60.2046 388.319 58.6867 388.319 56.633C388.319 54.5793 389.688 53.0614 391.712 53.0614C393.766 53.0614 395.105 54.5793 395.105 56.633C395.105 58.6867 393.766 60.2046 391.712 60.2046ZM413.677 63.4785H415.731C416.147 63.4785 416.445 63.2702 416.564 62.8833L420.136 52.0793L423.707 62.8833C423.826 63.2702 424.124 63.4785 424.541 63.4785H426.594C427.011 63.4785 427.309 63.2702 427.428 62.8833L433.41 44.9361C433.559 44.4599 433.321 44.1325 432.815 44.1325H430.225C429.809 44.1325 429.511 44.3408 429.392 44.7278L425.642 55.9782L421.862 44.7278C421.743 44.3408 421.445 44.1325 421.029 44.1325H419.451C419.034 44.1325 418.767 44.3408 418.648 44.7278L414.778 56.4544L410.879 44.7278C410.76 44.3408 410.463 44.1325 410.046 44.1325H407.457C406.951 44.1325 406.713 44.4599 406.861 44.9361L412.844 62.8833C412.963 63.2702 413.26 63.4785 413.677 63.4785ZM436.481 63.4785H438.773C439.22 63.4785 439.487 63.2106 439.487 62.7642V55.6806C439.487 53.2698 441.124 52.7043 442.196 52.7043C443.238 52.7043 444.934 53.2698 444.934 55.6806V62.7642C444.934 63.2106 445.202 63.4785 445.648 63.4785H447.94C448.387 63.4785 448.655 63.2106 448.655 62.7642V55.1151C448.655 50.9185 445.797 49.5792 443.327 49.5792C441.988 49.5792 440.529 49.9661 439.487 51.0971V44.8468C439.487 44.4004 439.22 44.1325 438.773 44.1325H436.481C436.035 44.1325 435.767 44.4004 435.767 44.8468V62.7642C435.767 63.2106 436.035 63.4785 436.481 63.4785ZM457.91 63.7166C459.636 63.7166 460.916 63.0916 461.839 62.0499V62.7642C461.839 63.2106 462.107 63.4785 462.553 63.4785H464.845C465.291 63.4785 465.559 63.2106 465.559 62.7642V50.5018C465.559 50.0554 465.291 49.7875 464.845 49.7875H462.553C462.107 49.7875 461.839 50.0554 461.839 50.5018V51.2459C460.916 50.2042 459.636 49.5792 457.91 49.5792C454.16 49.5792 451.422 52.4959 451.422 56.633C451.422 60.7105 454.16 63.7166 457.91 63.7166ZM458.446 60.2046C456.392 60.2046 455.023 58.6867 455.023 56.633C455.023 54.5793 456.392 53.0614 458.446 53.0614C460.499 53.0614 461.839 54.5793 461.839 56.633C461.839 58.6867 460.499 60.2046 458.446 60.2046ZM473.755 63.4785H475.511C475.957 63.4785 476.225 63.2106 476.225 62.7642V61.3058C476.225 60.8594 475.957 60.5915 475.511 60.5915H475.302C474.439 60.5915 473.457 60.532 473.457 58.9248V52.615H475.659C476.106 52.615 476.374 52.3471 476.374 51.9007V50.5018C476.374 50.0554 476.106 49.7875 475.659 49.7875H473.457V46.3052C473.457 45.8588 473.189 45.5909 472.743 45.5909H470.451C470.004 45.5909 469.737 45.8588 469.737 46.3052V49.7875H468.665C468.219 49.7875 467.951 50.0554 467.951 50.5018V51.9007C467.951 52.3471 468.219 52.615 468.665 52.615H469.737V59.52C469.737 62.0499 471.016 63.4785 473.755 63.4785ZM484.315 63.8952C487.827 63.8952 489.97 62.3773 489.97 59.4903C489.97 56.5437 486.25 55.5913 485.178 55.2341C484.107 54.877 482.41 54.5793 482.41 53.4781C482.41 52.7936 482.946 52.3174 484.166 52.3174C485.297 52.3174 486.428 52.8829 487.083 53.4484C487.41 53.746 487.738 53.8055 488.095 53.5674L489.345 52.7638C489.732 52.5257 489.851 52.1685 489.583 51.7816C488.69 50.5316 486.875 49.4899 484.285 49.4899C481.339 49.4899 478.779 50.7399 478.779 53.6567C478.779 56.6628 482.44 57.5259 483.512 57.8831C484.583 58.2402 486.339 58.5378 486.339 59.6391C486.339 60.532 485.654 60.9189 484.375 60.9189C483.035 60.9189 481.756 60.1748 481.101 59.4605C480.803 59.1331 480.505 59.0438 480.148 59.2819L478.749 60.2046C478.363 60.4724 478.243 60.7998 478.482 61.1868C479.374 62.6154 481.339 63.8952 484.315 63.8952ZM492.416 63.4785H495.005C495.392 63.4785 495.66 63.2702 495.809 62.913L496.85 60.2939H504.797L505.839 62.913C505.988 63.2702 506.256 63.4785 506.643 63.4785H509.232C509.768 63.4785 510.006 63.1214 509.797 62.6451L502.535 44.698C502.386 44.3408 502.089 44.1325 501.702 44.1325H499.976C499.589 44.1325 499.291 44.3408 499.142 44.698L491.85 62.6451C491.642 63.1214 491.88 63.4785 492.416 63.4785ZM498.249 56.7818L500.839 50.2042L503.428 56.7818H498.249ZM512.924 68.9549H515.216C515.662 68.9549 515.93 68.6871 515.93 68.2406V62.0499C516.852 63.0916 518.132 63.7166 519.859 63.7166C523.609 63.7166 526.347 60.7998 526.347 56.6628C526.347 52.5852 523.609 49.5792 519.859 49.5792C518.132 49.5792 516.852 50.2042 515.93 51.2459V50.5018C515.93 50.0554 515.662 49.7875 515.216 49.7875H512.924C512.477 49.7875 512.209 50.0554 512.209 50.5018V68.2406C512.209 68.6871 512.477 68.9549 512.924 68.9549ZM519.323 60.2046C517.269 60.2046 515.93 58.7164 515.93 56.6628C515.93 54.6091 517.269 53.0614 519.323 53.0614C521.376 53.0614 522.746 54.6091 522.746 56.6628C522.746 58.7164 521.376 60.2046 519.323 60.2046ZM529.84 68.9549H532.132C532.578 68.9549 532.846 68.6871 532.846 68.2406V62.0499C533.769 63.0916 535.048 63.7166 536.775 63.7166C540.525 63.7166 543.263 60.7998 543.263 56.6628C543.263 52.5852 540.525 49.5792 536.775 49.5792C535.048 49.5792 533.769 50.2042 532.846 51.2459V50.5018C532.846 50.0554 532.578 49.7875 532.132 49.7875H529.84C529.393 49.7875 529.126 50.0554 529.126 50.5018V68.2406C529.126 68.6871 529.393 68.9549 529.84 68.9549ZM536.239 60.2046C534.185 60.2046 532.846 58.7164 532.846 56.6628C532.846 54.6091 534.185 53.0614 536.239 53.0614C538.293 53.0614 539.662 54.6091 539.662 56.6628C539.662 58.7164 538.293 60.2046 536.239 60.2046Z" fill="white"/>
</svg>
